<svg xmlns="http://www.w3.org/2000/svg" viewBox="0 0 400 120" role="img" aria-label="Alaria Dynamics logo">
  <defs>
    <linearGradient id="g" x1="0" x2="1">
      <stop offset="0" stop-color="#7b2be2"/>
      <stop offset="1" stop-color="#2bb6e2"/>
    </linearGradient>
  </defs>
  <rect width="100%" height="100%" fill="none"/>
  <g transform="translate(12,12)">
    <circle cx="36" cy="36" r="32" fill="url(#g)" />
    <g transform="translate(72,24)">
      <text x="0" y="18" font-family="Segoe UI, Roboto, Arial" font-size="28" fill="#0f1724">Alaria</text>
      <text x="0" y="44" font-family="Segoe UI, Roboto, Arial" font-size="14" fill="#4b5563">Dynamics</text>
    </g>
  </g>
</svg>
<svg xmlns="http://www.w3.org/2000/svg" viewBox="0 0 300 80">
  <rect width="100%" height="100%" fill="#0b2545"/>
  <text x="50%" y="50%" dominant-baseline="middle" text-anchor="middle" fill="#fff" font-family="Arial, Helvetica, sans-serif" font-size="24">Alaria</text>
  <text x="50%" y="72%" dominant-baseline="middle" text-anchor="middle" fill="#8fb3ff" font-family="Arial, Helvetica, sans-serif" font-size="12">Dynamics</text>
</svg>
<svg id="svg" version="1.1" xmlns="http://www.w3.org/2000/svg" xmlns:xlink="http://www.w3.org/1999/xlink" width="400" height="400" viewBox="0, 0, 400,400"><g id="svgg"><path id="path0" d="M121.379 58.200 C 121.149 58.860,121.014 59.940,121.079 60.600 C 121.218 62.022,121.715 78.119,121.709 81.000 C 121.701 84.673,121.299 99.800,121.210 99.800 C 121.161 99.800,121.087 101.690,121.046 104.000 C 121.004 106.310,120.838 108.415,120.676 108.677 C 120.514 108.939,120.393 110.739,120.408 112.677 C 120.422 114.614,120.320 117.550,120.181 119.200 C 120.042 120.850,119.902 123.325,119.870 124.700 C 119.838 126.075,119.693 127.200,119.548 127.200 C 119.403 127.200,119.277 128.325,119.269 129.700 C 119.261 131.075,119.159 133.100,119.042 134.200 C 118.924 135.300,118.740 137.100,118.632 138.200 C 118.524 139.300,118.332 141.010,118.205 142.000 C 118.078 142.990,117.889 144.610,117.786 145.600 C 117.683 146.590,117.498 148.300,117.374 149.400 C 117.250 150.500,117.144 151.850,117.139 152.400 C 117.134 152.950,116.983 153.580,116.805 153.800 C 116.627 154.020,116.536 154.694,116.605 155.298 C 116.673 155.902,116.564 156.498,116.363 156.623 C 116.162 156.747,116.090 157.378,116.204 158.024 C 116.332 158.752,116.240 159.200,115.961 159.200 C 115.665 159.200,115.599 159.669,115.768 160.569 C 115.915 161.353,115.851 162.045,115.618 162.189 C 115.395 162.327,115.222 162.836,115.233 163.320 C 115.260 164.473,114.940 166.628,114.463 168.510 C 114.252 169.340,114.173 170.375,114.287 170.810 C 114.406 171.266,114.294 171.600,114.023 171.600 C 113.724 171.600,113.621 172.039,113.741 172.800 C 113.845 173.460,113.782 174.000,113.600 174.000 C 113.419 174.000,113.326 174.495,113.394 175.100 C 113.461 175.705,113.406 176.380,113.270 176.600 C 112.986 177.060,112.909 177.460,112.584 180.175 C 112.454 181.262,112.204 182.432,112.028 182.775 C 111.852 183.119,111.602 184.120,111.471 185.000 C 111.340 185.880,111.115 187.230,110.971 188.000 C 110.828 188.770,110.680 189.580,110.644 189.800 C 110.607 190.020,110.437 190.425,110.265 190.700 C 110.093 190.975,110.056 191.368,110.183 191.572 C 110.309 191.777,110.223 192.062,109.990 192.206 C 109.758 192.350,109.677 192.812,109.811 193.234 C 109.944 193.655,109.873 194.000,109.652 194.000 C 109.431 194.000,109.260 194.721,109.272 195.602 C 109.284 196.483,109.073 197.471,108.802 197.797 C 108.532 198.123,108.407 198.640,108.524 198.946 C 108.641 199.252,108.559 199.681,108.342 199.898 C 108.124 200.116,107.906 200.814,107.858 201.448 C 107.809 202.083,107.665 202.782,107.537 203.001 C 107.408 203.220,107.354 203.715,107.416 204.100 C 107.478 204.485,107.404 204.800,107.250 204.800 C 106.993 204.800,106.853 205.543,106.779 207.300 C 106.763 207.685,106.560 208.000,106.328 208.000 C 106.097 208.000,106.001 208.360,106.116 208.800 C 106.231 209.240,106.203 209.600,106.054 209.600 C 105.738 209.600,104.746 213.583,104.578 215.521 C 104.515 216.248,104.224 217.130,103.932 217.482 C 103.639 217.835,103.445 218.185,103.500 218.261 C 103.555 218.338,103.586 218.445,103.569 218.500 C 103.462 218.850,103.164 220.327,103.064 221.000 C 102.999 221.440,102.715 222.227,102.433 222.748 C 102.007 223.537,102.011 223.640,102.460 223.364 C 102.808 223.149,102.752 223.410,102.305 224.095 C 101.922 224.679,101.709 225.419,101.832 225.739 C 101.954 226.058,101.859 226.440,101.621 226.587 C 101.382 226.735,101.291 227.023,101.417 227.228 C 101.544 227.432,101.437 227.600,101.181 227.600 C 100.914 227.600,100.821 227.879,100.964 228.251 C 101.101 228.609,101.046 229.104,100.841 229.351 C 100.636 229.598,100.465 229.890,100.462 230.000 C 100.459 230.110,100.266 230.701,100.033 231.314 C 99.800 231.927,99.641 232.557,99.679 232.714 C 99.717 232.871,99.446 233.694,99.077 234.542 C 98.708 235.391,98.502 236.241,98.619 236.431 C 98.737 236.622,98.540 237.225,98.182 237.771 C 97.824 238.318,97.647 238.953,97.789 239.182 C 97.931 239.412,97.862 239.600,97.636 239.600 C 97.410 239.600,97.329 239.870,97.455 240.200 C 97.586 240.540,97.465 240.800,97.176 240.800 C 96.896 240.800,96.766 240.899,96.887 241.020 C 97.008 241.142,96.792 242.087,96.407 243.120 C 96.022 244.154,95.788 245.225,95.887 245.500 C 95.986 245.775,95.877 246.000,95.646 246.000 C 95.414 246.000,95.329 246.270,95.455 246.600 C 95.582 246.930,95.492 247.200,95.255 247.200 C 95.019 247.200,94.929 247.470,95.055 247.800 C 95.182 248.130,95.086 248.400,94.843 248.400 C 94.599 248.400,94.429 248.535,94.464 248.700 C 94.537 249.045,94.111 250.284,93.571 251.295 C 93.367 251.677,93.200 252.431,93.200 252.971 C 93.200 253.511,93.017 254.066,92.793 254.204 C 92.570 254.342,92.491 254.623,92.617 254.828 C 92.744 255.032,92.646 255.200,92.400 255.200 C 92.154 255.200,92.056 255.368,92.183 255.572 C 92.309 255.777,92.227 256.060,92.000 256.200 C 91.773 256.340,91.683 256.610,91.800 256.800 C 91.917 256.990,91.838 257.253,91.624 257.385 C 91.410 257.517,91.348 257.919,91.485 258.278 C 91.648 258.701,91.578 258.834,91.288 258.655 C 91.000 258.477,90.753 258.917,90.595 259.889 C 90.460 260.720,90.151 261.850,89.908 262.400 C 89.666 262.950,89.425 263.580,89.373 263.800 C 89.322 264.020,89.053 264.740,88.777 265.400 C 88.501 266.060,88.248 266.780,88.214 267.000 C 88.180 267.220,87.864 268.028,87.512 268.796 C 87.160 269.564,86.956 270.329,87.059 270.496 C 87.163 270.663,87.046 270.800,86.800 270.800 C 86.554 270.800,86.464 270.980,86.600 271.200 C 86.736 271.420,86.627 271.600,86.357 271.600 C 86.087 271.600,85.977 271.710,86.112 271.845 C 86.376 272.109,85.244 275.269,84.767 275.600 C 84.609 275.710,84.384 276.401,84.269 277.136 C 84.153 277.871,83.798 278.771,83.480 279.136 C 83.162 279.501,82.780 280.475,82.633 281.300 C 82.485 282.125,82.192 282.800,81.982 282.800 C 81.772 282.800,81.600 283.261,81.600 283.824 C 81.600 284.396,81.426 284.740,81.205 284.603 C 80.978 284.463,80.911 284.623,81.047 284.979 C 81.178 285.321,81.092 285.600,80.855 285.600 C 80.618 285.600,80.540 285.899,80.681 286.266 C 80.867 286.752,80.792 286.842,80.400 286.600 C 80.013 286.361,79.932 286.446,80.110 286.909 C 80.246 287.264,80.009 287.989,79.578 288.538 C 79.150 289.081,78.800 289.711,78.800 289.937 C 78.800 290.163,78.591 290.855,78.335 291.474 C 78.080 292.093,77.900 292.735,77.935 292.900 C 77.971 293.065,77.809 293.200,77.576 293.200 C 77.343 293.200,77.264 293.380,77.400 293.600 C 77.536 293.820,77.446 294.000,77.200 294.000 C 76.954 294.000,76.864 294.180,77.000 294.400 C 77.136 294.620,77.046 294.800,76.800 294.800 C 76.554 294.800,76.456 294.968,76.583 295.172 C 76.709 295.377,76.630 295.658,76.407 295.796 C 76.183 295.934,76.000 296.487,76.000 297.024 C 76.000 297.561,75.820 298.000,75.600 298.000 C 75.380 298.000,75.239 298.135,75.287 298.300 C 75.421 298.761,73.887 302.000,73.536 302.000 C 73.365 302.000,73.329 302.270,73.455 302.600 C 73.586 302.940,73.465 303.200,73.176 303.200 C 72.896 303.200,72.781 303.314,72.920 303.454 C 73.060 303.593,72.820 304.157,72.387 304.708 C 71.954 305.258,71.600 306.044,71.600 306.454 C 71.600 306.864,71.409 307.200,71.176 307.200 C 70.943 307.200,70.857 307.369,70.985 307.576 C 71.113 307.783,70.820 308.323,70.333 308.776 C 69.847 309.229,69.601 309.600,69.787 309.600 C 69.972 309.600,69.826 309.930,69.461 310.332 C 69.097 310.735,68.893 311.160,69.009 311.275 C 69.125 311.391,68.945 311.714,68.610 311.992 C 68.274 312.270,68.000 312.737,68.000 313.028 C 68.000 313.320,67.561 314.032,67.025 314.611 C 66.488 315.190,66.147 315.918,66.266 316.228 C 66.385 316.539,66.194 316.904,65.842 317.039 C 65.489 317.175,65.200 317.527,65.200 317.822 C 65.200 318.117,64.753 318.841,64.207 319.430 C 63.662 320.019,63.301 320.639,63.405 320.808 C 63.510 320.978,63.315 321.224,62.972 321.355 C 62.630 321.487,62.461 321.776,62.598 321.997 C 62.735 322.219,62.657 322.400,62.424 322.400 C 62.191 322.400,62.000 322.651,62.000 322.957 C 62.000 323.264,61.732 323.617,61.403 323.743 C 61.055 323.877,60.842 324.395,60.891 324.986 C 60.961 325.843,61.281 326.216,61.700 325.932 C 61.755 325.895,62.167 326.061,62.616 326.301 C 63.064 326.541,64.921 326.838,66.741 326.961 C 68.562 327.084,70.175 327.260,70.326 327.353 C 70.477 327.445,71.553 327.623,72.719 327.748 C 73.884 327.873,74.964 328.053,75.119 328.148 C 75.273 328.243,76.120 328.433,77.000 328.570 C 77.880 328.707,78.870 328.896,79.200 328.991 C 79.530 329.085,80.700 329.281,81.800 329.425 C 82.900 329.570,84.250 329.763,84.800 329.856 C 85.350 329.948,86.340 330.098,87.000 330.190 C 87.660 330.281,88.650 330.473,89.200 330.616 C 91.145 331.121,93.804 331.510,94.100 331.332 C 94.265 331.234,94.400 331.319,94.400 331.521 C 94.400 331.724,94.850 331.841,95.400 331.780 C 95.950 331.720,96.400 331.799,96.400 331.955 C 96.400 332.112,96.805 332.258,97.300 332.281 C 97.795 332.304,98.650 332.434,99.200 332.570 C 101.320 333.096,103.602 333.293,103.636 332.954 C 103.749 331.828,104.046 325.022,104.074 322.900 C 104.092 321.525,104.259 320.400,104.444 320.400 C 104.630 320.400,104.764 319.455,104.744 318.300 C 104.723 317.145,104.811 315.120,104.940 313.800 C 105.068 312.480,105.243 310.410,105.328 309.200 C 105.412 307.990,105.588 306.640,105.718 306.200 C 105.847 305.760,106.059 303.960,106.188 302.200 C 106.609 296.452,106.844 294.252,107.078 293.874 C 107.204 293.669,107.368 292.489,107.440 291.251 C 107.513 290.013,107.678 288.190,107.808 287.200 C 107.937 286.210,108.102 284.680,108.175 283.800 C 108.248 282.920,108.436 281.480,108.593 280.600 C 108.750 279.720,108.912 278.280,108.954 277.400 C 108.995 276.520,109.132 275.620,109.258 275.400 C 109.385 275.180,109.455 274.415,109.414 273.700 C 109.374 272.985,109.461 272.400,109.608 272.400 C 109.756 272.400,109.842 271.680,109.800 270.800 C 109.758 269.920,109.854 269.200,110.012 269.200 C 110.171 269.200,110.252 268.479,110.192 267.598 C 110.132 266.717,110.249 265.893,110.452 265.768 C 110.655 265.642,110.799 264.968,110.771 264.270 C 110.744 263.571,110.855 262.100,111.020 261.000 C 111.184 259.900,111.355 258.550,111.399 258.000 C 111.444 257.450,111.617 256.682,111.785 256.294 C 111.953 255.906,111.997 255.231,111.883 254.794 C 111.768 254.357,111.825 254.000,112.008 254.000 C 112.192 254.000,112.270 253.434,112.183 252.743 C 112.095 252.051,112.153 251.286,112.310 251.043 C 112.563 250.653,112.672 249.791,112.936 246.100 C 112.971 245.605,113.118 245.200,113.263 245.200 C 113.407 245.200,113.430 244.836,113.313 244.390 C 113.197 243.945,113.330 242.765,113.609 241.768 C 113.888 240.771,114.140 239.290,114.169 238.478 C 114.198 237.665,114.351 236.793,114.509 236.540 C 114.668 236.287,114.793 235.657,114.788 235.140 C 114.776 234.063,115.085 231.000,115.206 231.000 C 115.250 231.000,115.317 230.425,115.354 229.722 C 115.392 229.019,115.528 228.338,115.657 228.209 C 115.786 228.080,115.830 227.440,115.754 226.787 C 115.678 226.134,115.756 225.600,115.928 225.600 C 116.100 225.600,116.265 225.195,116.296 224.700 C 116.327 224.205,116.459 222.900,116.590 221.800 C 116.720 220.700,116.887 219.260,116.960 218.600 C 117.033 217.940,117.138 217.400,117.192 217.400 C 117.304 217.400,117.589 215.137,117.683 213.500 C 117.717 212.895,117.854 212.400,117.987 212.400 C 118.120 212.400,118.247 212.085,118.269 211.700 C 118.292 211.315,118.436 210.100,118.590 209.000 C 118.743 207.900,118.898 206.505,118.934 205.900 C 118.969 205.295,119.130 204.800,119.291 204.800 C 119.452 204.800,119.522 204.266,119.446 203.613 C 119.370 202.960,119.400 202.333,119.512 202.221 C 119.755 201.978,120.049 199.793,120.020 198.441 C 120.008 197.914,120.148 197.284,120.329 197.041 C 120.620 196.652,120.821 195.344,120.936 193.100 C 120.955 192.715,121.095 192.400,121.246 192.400 C 121.397 192.400,121.462 191.770,121.390 191.000 C 121.319 190.230,121.416 189.600,121.606 189.600 C 121.796 189.600,121.904 189.105,121.845 188.500 C 121.786 187.895,121.867 187.130,122.026 186.800 C 122.184 186.470,122.442 185.120,122.599 183.800 C 123.063 179.885,123.133 179.457,123.530 178.161 C 123.739 177.479,123.843 176.354,123.762 175.661 C 123.682 174.967,123.756 174.400,123.928 174.400 C 124.100 174.400,124.265 173.995,124.295 173.500 C 124.325 173.005,124.462 171.880,124.598 171.000 C 124.735 170.120,124.923 168.770,125.017 168.000 C 125.321 165.500,125.562 163.824,125.795 162.600 C 125.921 161.940,126.077 160.849,126.141 160.176 C 126.206 159.503,126.359 158.783,126.481 158.576 C 126.604 158.369,126.648 157.705,126.579 157.100 C 126.511 156.495,126.596 156.000,126.769 156.000 C 126.942 156.000,127.086 155.325,127.089 154.500 C 127.095 152.848,127.327 151.323,127.713 150.400 C 127.851 150.070,128.046 148.810,128.146 147.600 C 128.246 146.390,128.357 145.400,128.391 145.400 C 128.483 145.400,128.942 141.755,129.310 138.100 C 129.359 137.605,129.505 137.200,129.633 137.200 C 129.761 137.200,129.831 136.795,129.788 136.300 C 129.745 135.805,129.880 135.183,130.089 134.918 C 130.298 134.652,130.338 134.224,130.179 133.966 C 130.001 133.678,130.093 133.564,130.416 133.672 C 130.706 133.769,131.136 134.197,131.371 134.624 C 131.607 135.051,131.958 135.515,132.151 135.655 C 132.344 135.796,132.379 136.111,132.228 136.355 C 132.076 136.600,132.173 136.800,132.443 136.800 C 132.713 136.800,132.827 136.907,132.697 137.037 C 132.566 137.167,132.810 138.091,133.239 139.091 C 133.667 140.090,134.053 141.334,134.096 141.854 C 134.139 142.374,134.326 142.800,134.511 142.800 C 134.696 142.800,134.744 142.968,134.617 143.172 C 134.491 143.377,134.542 143.641,134.732 143.758 C 134.922 143.875,135.093 144.507,135.111 145.161 C 135.130 145.815,135.370 146.766,135.645 147.275 C 135.920 147.784,136.188 148.586,136.241 149.059 C 136.294 149.531,136.636 150.496,137.001 151.203 C 137.367 151.910,137.488 152.378,137.270 152.243 C 137.022 152.090,137.035 152.522,137.304 153.399 C 137.541 154.170,137.896 154.800,138.094 154.800 C 138.292 154.800,138.340 155.160,138.200 155.600 C 138.058 156.049,138.128 156.400,138.360 156.400 C 138.588 156.400,138.671 156.670,138.545 157.000 C 138.418 157.330,138.514 157.600,138.757 157.600 C 139.001 157.600,139.169 157.735,139.132 157.900 C 138.979 158.567,139.713 162.000,140.008 162.000 C 140.182 162.000,140.231 162.360,140.116 162.800 C 139.987 163.293,140.104 163.600,140.420 163.600 C 140.702 163.600,140.815 163.718,140.670 163.863 C 140.525 164.008,140.611 164.372,140.860 164.673 C 141.110 164.973,141.209 165.325,141.080 165.453 C 140.951 165.582,141.170 166.523,141.567 167.544 C 141.963 168.565,142.206 169.631,142.106 169.913 C 142.006 170.196,142.137 170.683,142.397 170.996 C 142.656 171.309,142.753 171.753,142.611 171.982 C 142.469 172.212,142.527 172.400,142.741 172.400 C 142.955 172.400,143.079 172.715,143.017 173.100 C 142.956 173.485,143.159 174.300,143.469 174.912 C 143.779 175.523,143.928 176.193,143.800 176.400 C 143.672 176.608,143.824 177.187,144.139 177.689 C 144.454 178.190,144.657 178.915,144.591 179.300 C 144.525 179.685,144.618 180.000,144.798 180.000 C 144.978 180.000,145.031 180.360,144.916 180.800 C 144.801 181.240,144.891 181.600,145.116 181.600 C 145.341 181.600,145.431 181.960,145.316 182.400 C 145.201 182.840,145.291 183.200,145.516 183.200 C 145.741 183.200,145.831 183.560,145.716 184.000 C 145.601 184.440,145.702 184.800,145.941 184.800 C 146.180 184.800,146.278 185.052,146.160 185.360 C 146.042 185.667,146.130 186.033,146.355 186.172 C 146.581 186.312,146.667 186.681,146.547 186.994 C 146.427 187.306,146.475 187.795,146.653 188.081 C 146.832 188.366,147.010 188.780,147.051 189.000 C 147.369 190.743,147.917 193.000,148.021 193.000 C 148.067 193.000,148.143 193.450,148.191 194.000 C 148.285 195.082,148.728 197.037,149.096 198.000 C 149.223 198.330,149.287 198.838,149.239 199.130 C 149.191 199.421,149.357 199.907,149.609 200.210 C 149.860 200.514,149.949 201.130,149.806 201.581 C 149.649 202.075,149.725 202.400,149.997 202.400 C 150.244 202.400,150.336 202.580,150.200 202.800 C 150.064 203.020,150.092 203.425,150.263 203.700 C 150.434 203.975,150.590 204.560,150.611 205.000 C 150.632 205.440,150.845 206.520,151.085 207.400 C 151.324 208.280,151.527 209.270,151.537 209.600 C 151.561 210.486,151.782 211.335,152.135 211.900 C 152.307 212.175,152.334 212.583,152.196 212.806 C 152.059 213.029,152.175 214.244,152.456 215.506 C 153.012 218.004,153.184 224.000,152.700 224.000 C 152.535 224.000,152.400 224.436,152.400 224.969 C 152.400 225.866,150.658 226.913,149.000 227.013 C 148.780 227.026,148.191 227.262,147.692 227.537 C 147.192 227.812,146.620 227.936,146.419 227.812 C 146.219 227.688,145.949 227.759,145.819 227.969 C 145.689 228.179,145.227 228.282,144.792 228.198 C 144.356 228.115,144.000 228.191,144.000 228.369 C 144.000 228.742,139.325 228.431,135.200 227.785 C 128.854 226.790,123.948 226.761,122.897 227.712 C 122.043 228.485,121.977 232.937,122.806 233.766 C 123.023 233.983,123.200 234.419,123.200 234.736 C 123.200 235.053,123.515 235.570,123.900 235.886 C 124.285 236.201,124.387 236.353,124.127 236.223 C 123.821 236.070,123.866 236.411,124.257 237.193 C 124.588 237.857,125.036 238.400,125.253 238.400 C 125.470 238.400,125.549 238.560,125.428 238.755 C 125.307 238.950,125.475 239.330,125.800 239.600 C 126.125 239.870,126.293 240.250,126.172 240.445 C 126.051 240.640,126.143 240.800,126.376 240.800 C 126.609 240.800,126.800 241.070,126.800 241.400 C 126.800 241.730,126.980 242.000,127.200 242.000 C 127.420 242.000,127.562 242.135,127.515 242.300 C 127.408 242.676,128.267 244.245,129.063 245.130 C 129.674 245.808,131.870 249.129,132.595 250.470 C 132.812 250.871,133.127 251.200,133.295 251.200 C 133.463 251.200,133.600 251.494,133.600 251.853 C 133.600 252.213,134.095 252.954,134.700 253.500 C 135.305 254.047,135.530 254.350,135.200 254.174 C 134.870 253.999,135.185 254.462,135.900 255.203 C 136.615 255.945,137.200 256.775,137.200 257.049 C 137.200 257.322,137.737 257.928,138.393 258.395 C 139.049 258.862,139.560 259.369,139.529 259.522 C 139.413 260.099,140.099 261.186,140.445 260.972 C 140.643 260.850,140.925 261.076,141.071 261.475 C 141.217 261.874,142.025 262.920,142.865 263.800 C 143.706 264.680,144.364 265.490,144.328 265.600 C 144.291 265.710,144.834 266.430,145.534 267.200 C 147.746 269.634,148.377 270.400,148.170 270.400 C 148.059 270.400,148.201 270.651,148.484 270.958 C 148.768 271.265,149.135 271.434,149.300 271.334 C 149.465 271.235,149.600 271.415,149.600 271.735 C 149.600 272.055,150.275 272.910,151.100 273.634 C 151.925 274.359,152.600 275.082,152.600 275.242 C 152.600 275.402,153.005 275.884,153.500 276.313 C 153.995 276.743,154.400 277.298,154.400 277.547 C 154.400 277.796,154.674 278.000,155.010 278.000 C 155.345 278.000,155.795 278.461,156.009 279.024 C 156.223 279.587,156.579 279.937,156.799 279.800 C 157.020 279.664,157.200 279.735,157.200 279.958 C 157.200 280.181,158.055 281.209,159.100 282.243 C 160.145 283.278,160.956 284.272,160.903 284.453 C 160.850 284.634,161.341 285.059,161.996 285.398 C 162.651 285.737,163.464 286.550,163.804 287.207 C 164.143 287.863,164.598 288.400,164.814 288.400 C 165.299 288.400,167.657 290.617,167.655 291.070 C 167.654 291.252,167.984 291.580,168.389 291.800 C 168.794 292.020,169.792 292.963,170.607 293.896 C 171.422 294.829,172.236 295.501,172.416 295.390 C 172.595 295.279,172.851 295.532,172.984 295.951 C 173.118 296.370,173.599 296.811,174.053 296.930 C 174.508 297.049,174.762 297.338,174.617 297.573 C 174.472 297.808,174.632 298.000,174.973 298.000 C 175.314 298.000,175.818 298.360,176.093 298.800 C 176.368 299.240,176.819 299.600,177.096 299.600 C 177.373 299.600,177.600 299.870,177.600 300.200 C 177.600 300.530,177.762 300.755,177.960 300.700 C 178.158 300.645,178.348 300.780,178.381 301.000 C 178.415 301.220,178.923 301.652,179.511 301.960 C 180.098 302.267,180.922 302.956,181.342 303.489 C 181.762 304.023,182.531 304.622,183.053 304.820 C 183.574 305.018,184.000 305.465,184.000 305.814 C 184.000 306.162,184.161 306.348,184.358 306.226 C 184.555 306.104,184.824 306.285,184.955 306.628 C 185.087 306.970,185.361 307.148,185.565 307.022 C 185.769 306.896,186.291 307.244,186.726 307.796 C 187.160 308.348,187.702 308.800,187.930 308.800 C 188.159 308.800,188.728 309.337,189.195 309.993 C 189.662 310.649,190.207 311.144,190.406 311.093 C 190.605 311.042,191.527 311.720,192.455 312.600 C 193.383 313.480,194.012 313.930,193.853 313.600 C 193.693 313.270,193.863 313.405,194.230 313.900 C 194.597 314.395,195.102 314.800,195.353 314.800 C 195.603 314.800,196.043 315.178,196.331 315.639 C 196.620 316.100,196.948 316.385,197.061 316.272 C 197.174 316.159,197.612 316.367,198.033 316.733 C 198.455 317.100,199.160 317.715,199.600 318.100 C 200.040 318.485,200.400 318.703,200.400 318.584 C 200.400 318.378,200.932 318.772,202.214 319.929 C 202.536 320.219,202.800 320.362,202.800 320.247 C 202.800 320.131,203.252 320.488,203.804 321.040 C 204.356 321.592,205.391 322.290,206.104 322.591 C 206.817 322.892,207.846 323.557,208.391 324.069 C 208.935 324.581,209.475 325.013,209.591 325.029 C 210.192 325.111,212.000 326.171,212.000 326.442 C 212.000 326.778,213.501 327.679,215.300 328.423 C 215.905 328.673,216.400 329.041,216.400 329.239 C 216.400 329.438,216.535 329.556,216.700 329.501 C 216.865 329.447,217.647 329.897,218.438 330.501 C 219.229 331.106,220.174 331.600,220.538 331.600 C 220.902 331.600,221.200 331.791,221.200 332.024 C 221.200 332.257,221.380 332.336,221.600 332.200 C 221.820 332.064,222.000 332.143,222.000 332.376 C 222.000 332.609,222.255 332.800,222.567 332.800 C 222.878 332.800,223.193 332.935,223.267 333.100 C 223.463 333.541,226.800 335.301,226.800 334.964 C 226.800 334.805,227.137 334.981,227.550 335.355 C 227.962 335.728,228.457 336.005,228.650 335.969 C 228.842 335.934,229.090 335.940,229.200 335.982 C 230.213 336.373,231.157 336.289,231.348 335.791 C 231.473 335.466,231.390 335.200,231.164 335.200 C 230.938 335.200,230.864 335.020,231.000 334.800 C 231.136 334.580,231.057 334.400,230.824 334.400 C 230.591 334.400,230.400 334.130,230.400 333.800 C 230.400 333.470,230.209 333.200,229.976 333.200 C 229.743 333.200,229.660 333.027,229.791 332.815 C 229.922 332.603,229.663 332.063,229.215 331.615 C 228.767 331.167,228.400 330.519,228.400 330.176 C 228.400 329.833,228.235 329.655,228.032 329.780 C 227.830 329.905,227.452 329.363,227.192 328.576 C 226.932 327.788,226.469 327.048,226.162 326.930 C 225.855 326.812,225.705 326.554,225.828 326.355 C 225.950 326.157,225.769 325.886,225.425 325.754 C 225.081 325.622,224.800 325.264,224.800 324.957 C 224.800 324.651,224.620 324.400,224.400 324.400 C 224.180 324.400,224.029 324.265,224.065 324.100 C 224.187 323.530,223.219 321.600,222.810 321.600 C 222.584 321.600,222.400 321.240,222.400 320.800 C 222.400 320.360,222.220 320.000,222.000 320.000 C 221.780 320.000,221.600 319.724,221.600 319.387 C 221.600 319.051,221.320 318.667,220.977 318.536 C 220.634 318.404,220.439 318.076,220.542 317.807 C 220.646 317.537,220.287 316.838,219.744 316.253 C 219.202 315.669,218.886 314.985,219.041 314.733 C 219.208 314.463,219.147 314.386,218.891 314.544 C 218.483 314.796,217.742 313.373,217.924 312.689 C 217.970 312.518,217.737 312.274,217.406 312.147 C 217.075 312.020,216.904 311.755,217.026 311.558 C 217.148 311.361,217.076 311.200,216.866 311.200 C 216.657 311.200,216.378 310.921,216.247 310.579 C 216.086 310.158,216.168 310.054,216.505 310.256 C 217.013 310.561,216.077 309.204,215.473 308.760 C 215.294 308.628,215.107 308.250,215.059 307.920 C 215.010 307.590,214.658 306.843,214.276 306.260 C 213.894 305.677,213.689 305.200,213.820 305.200 C 213.951 305.200,213.685 304.726,213.229 304.146 C 212.773 303.566,212.400 302.756,212.400 302.346 C 212.400 301.936,212.220 301.600,212.000 301.600 C 211.780 301.600,211.600 301.328,211.600 300.995 C 211.600 300.345,210.802 298.749,210.286 298.368 C 210.113 298.240,209.876 297.610,209.760 296.969 C 209.644 296.328,209.297 295.662,208.990 295.491 C 208.683 295.319,208.315 294.553,208.172 293.789 C 208.028 293.025,207.721 292.400,207.489 292.400 C 207.257 292.400,207.179 292.287,207.317 292.149 C 207.455 292.011,207.268 291.336,206.902 290.649 C 206.535 289.962,206.273 289.265,206.318 289.100 C 206.363 288.935,206.209 288.800,205.976 288.800 C 205.743 288.800,205.664 288.620,205.800 288.400 C 205.936 288.180,205.846 288.000,205.600 288.000 C 205.354 288.000,205.248 287.845,205.365 287.656 C 205.612 287.258,204.737 285.208,204.318 285.203 C 204.163 285.201,203.918 284.570,203.774 283.800 C 203.629 283.030,203.332 282.400,203.113 282.400 C 202.894 282.400,202.810 282.152,202.926 281.849 C 203.042 281.546,202.936 281.096,202.689 280.849 C 202.442 280.602,202.363 280.400,202.513 280.400 C 202.663 280.400,202.429 279.765,201.993 278.988 C 201.557 278.211,201.200 277.261,201.200 276.877 C 201.200 276.492,200.936 275.802,200.614 275.342 C 200.292 274.881,200.142 274.391,200.281 274.253 C 200.420 274.114,200.313 274.000,200.043 274.000 C 199.773 274.000,199.664 273.820,199.800 273.600 C 199.936 273.380,199.837 273.200,199.581 273.200 C 199.324 273.200,199.216 272.935,199.340 272.612 C 199.464 272.288,199.291 271.748,198.954 271.412 C 198.618 271.075,198.468 270.800,198.620 270.800 C 198.773 270.800,198.674 270.530,198.400 270.200 C 198.126 269.870,198.050 269.600,198.231 269.600 C 198.412 269.600,198.344 269.384,198.080 269.120 C 197.816 268.856,197.600 268.158,197.600 267.569 C 197.600 266.980,197.322 266.267,196.982 265.985 C 196.642 265.703,196.454 265.236,196.564 264.949 C 196.675 264.661,196.598 264.322,196.393 264.196 C 195.995 263.949,195.003 260.825,195.143 260.258 C 195.190 260.070,195.005 259.647,194.733 259.319 C 194.460 258.991,194.179 258.338,194.107 257.870 C 194.036 257.401,193.816 256.856,193.620 256.660 C 193.423 256.463,193.358 256.054,193.474 255.751 C 193.590 255.448,193.525 255.200,193.329 255.200 C 193.132 255.200,192.960 254.885,192.946 254.500 C 192.932 254.115,192.776 253.275,192.600 252.634 C 192.334 251.666,192.386 251.509,192.907 251.709 C 193.265 251.846,193.628 251.703,193.754 251.375 C 193.876 251.059,194.341 250.800,194.787 250.800 C 195.234 250.800,195.600 250.620,195.600 250.400 C 195.600 250.180,195.881 250.000,196.224 250.000 C 196.567 250.000,196.736 249.820,196.600 249.600 C 196.464 249.380,196.574 249.200,196.845 249.200 C 197.116 249.200,197.697 248.885,198.137 248.500 C 198.714 247.995,198.844 247.967,198.604 248.400 C 198.421 248.730,198.717 248.595,199.261 248.100 C 199.806 247.605,200.456 247.200,200.706 247.200 C 200.956 247.200,201.304 246.971,201.480 246.690 C 202.307 245.374,204.100 244.648,204.654 245.406 C 204.940 245.798,205.073 246.283,204.948 246.484 C 204.823 246.686,204.966 247.154,205.265 247.525 C 206.107 248.571,207.230 250.715,207.402 251.608 C 207.487 252.051,207.836 252.694,208.178 253.036 C 208.898 253.755,209.000 254.171,208.360 253.775 C 207.734 253.389,208.792 255.298,209.488 255.811 C 209.794 256.037,210.091 256.487,210.148 256.811 C 210.318 257.778,212.078 261.600,212.353 261.600 C 212.493 261.600,212.844 261.979,213.133 262.442 C 213.569 263.139,213.568 263.237,213.130 263.012 C 212.838 262.863,212.886 262.979,213.235 263.270 C 213.584 263.562,213.794 264.025,213.702 264.300 C 213.609 264.575,213.706 264.800,213.918 264.800 C 214.130 264.800,214.527 265.340,214.800 266.000 C 215.073 266.660,215.485 267.200,215.715 267.200 C 215.945 267.200,216.017 267.317,215.874 267.459 C 215.550 267.783,217.214 270.800,217.716 270.800 C 217.919 270.800,217.988 271.053,217.870 271.362 C 217.751 271.672,217.998 272.236,218.418 272.616 C 218.838 272.996,219.092 273.452,218.982 273.629 C 218.873 273.806,219.012 274.097,219.292 274.275 C 220.029 274.746,221.160 276.250,220.460 275.829 C 220.025 275.566,220.006 275.664,220.365 276.335 C 220.610 276.792,221.123 277.348,221.505 277.571 C 221.887 277.793,222.058 277.981,221.884 277.988 C 221.711 277.995,221.930 278.387,222.371 278.861 C 222.812 279.334,223.095 279.847,223.000 280.000 C 222.905 280.153,223.188 280.666,223.629 281.139 C 224.070 281.613,224.289 282.005,224.116 282.012 C 223.942 282.019,224.119 282.210,224.508 282.437 C 224.898 282.664,225.112 283.018,224.985 283.225 C 224.857 283.431,224.954 283.600,225.200 283.600 C 225.446 283.600,225.536 283.780,225.400 284.000 C 225.264 284.220,225.310 284.400,225.502 284.400 C 225.695 284.400,226.152 285.030,226.519 285.800 C 226.887 286.570,227.349 287.200,227.547 287.200 C 227.744 287.200,228.382 288.173,228.964 289.361 C 229.545 290.550,230.291 291.626,230.621 291.753 C 230.951 291.879,231.570 292.797,231.996 293.792 C 232.423 294.786,232.879 295.600,233.009 295.600 C 233.140 295.600,233.119 295.392,232.962 295.138 C 232.785 294.852,232.852 294.785,233.138 294.962 C 233.392 295.119,233.600 295.507,233.600 295.824 C 233.600 296.141,233.780 296.400,234.000 296.400 C 234.220 296.400,234.400 296.595,234.400 296.833 C 234.400 297.326,237.139 300.834,237.908 301.325 C 238.188 301.503,238.312 301.819,238.183 302.027 C 238.054 302.235,238.231 302.514,238.575 302.646 C 238.919 302.778,239.200 303.127,239.200 303.423 C 239.200 303.718,239.515 304.144,239.900 304.368 C 240.285 304.592,240.473 304.781,240.318 304.788 C 240.163 304.795,240.433 305.233,240.918 305.763 C 241.403 306.293,242.340 307.441,243.000 308.315 C 243.660 309.190,244.335 309.825,244.500 309.729 C 244.665 309.632,244.800 309.737,244.800 309.963 C 244.800 310.188,245.295 310.900,245.900 311.545 C 246.959 312.674,247.471 313.311,249.242 315.700 C 249.691 316.305,250.315 316.800,250.629 316.800 C 250.943 316.800,251.200 316.999,251.200 317.242 C 251.200 317.791,262.249 328.800,262.800 328.800 C 263.020 328.800,263.200 329.070,263.200 329.400 C 263.200 329.730,263.470 330.027,263.800 330.060 C 264.130 330.093,264.580 330.138,264.800 330.160 C 265.020 330.182,265.184 330.036,265.164 329.836 C 265.144 329.636,265.418 329.310,265.773 329.111 C 266.127 328.913,266.312 328.582,266.185 328.375 C 266.057 328.169,266.154 328.000,266.400 328.000 C 266.646 328.000,266.736 327.820,266.600 327.600 C 266.464 327.380,266.633 327.200,266.976 327.200 C 267.510 327.200,267.820 326.656,267.500 326.284 C 267.445 326.220,268.030 325.574,268.800 324.850 C 269.570 324.125,269.930 323.672,269.600 323.843 C 269.085 324.110,269.077 324.059,269.545 323.481 C 269.845 323.111,270.278 322.925,270.507 323.066 C 270.750 323.216,270.804 323.130,270.636 322.859 C 270.479 322.603,270.598 322.299,270.903 322.182 C 271.207 322.065,272.155 321.133,273.010 320.111 C 273.865 319.088,274.302 318.393,273.982 318.566 C 273.662 318.739,274.480 317.858,275.800 316.607 C 277.120 315.357,277.930 314.473,277.600 314.644 C 277.083 314.910,277.076 314.859,277.549 314.277 C 277.851 313.905,278.357 313.600,278.673 313.600 C 278.989 313.600,279.136 313.420,279.000 313.200 C 278.864 312.980,279.033 312.800,279.376 312.800 C 279.719 312.800,280.000 312.634,280.000 312.431 C 280.000 312.228,280.719 311.357,281.598 310.495 C 282.477 309.634,283.077 308.810,282.931 308.665 C 282.786 308.519,282.957 308.400,283.312 308.400 C 283.666 308.400,284.193 307.907,284.482 307.304 C 284.771 306.701,285.501 305.971,286.104 305.682 C 286.707 305.393,287.200 304.995,287.200 304.797 C 287.200 304.600,287.859 303.798,288.665 303.016 C 289.470 302.234,290.340 301.190,290.597 300.697 C 290.855 300.204,291.231 299.824,291.433 299.854 C 291.635 299.883,292.160 299.540,292.600 299.092 C 293.040 298.644,293.130 298.429,292.800 298.614 C 292.176 298.964,293.776 297.204,297.700 293.225 C 298.965 291.943,300.000 290.662,300.000 290.380 C 300.000 290.098,300.119 289.986,300.264 290.131 C 300.509 290.375,301.915 288.741,301.680 288.485 C 301.622 288.422,302.120 287.911,302.787 287.349 C 303.454 286.788,304.000 286.112,304.000 285.848 C 304.000 285.583,304.630 284.699,305.399 283.883 C 306.169 283.068,306.681 282.400,306.538 282.400 C 306.394 282.400,306.933 281.763,307.734 280.985 C 308.535 280.207,309.151 279.442,309.103 279.285 C 308.957 278.812,311.050 275.984,311.335 276.269 C 311.481 276.414,311.623 276.323,311.650 276.067 C 311.678 275.810,311.723 275.405,311.750 275.168 C 311.778 274.930,312.149 274.480,312.576 274.168 C 313.004 273.855,313.224 273.600,313.067 273.600 C 312.803 273.600,313.892 271.653,314.410 271.200 C 315.138 270.563,316.577 268.125,316.479 267.696 C 316.415 267.417,316.640 267.083,316.979 266.953 C 317.318 266.823,317.496 266.555,317.374 266.358 C 317.252 266.161,317.354 266.000,317.600 266.000 C 317.846 266.000,317.948 265.839,317.826 265.642 C 317.704 265.445,317.874 265.181,318.202 265.054 C 318.531 264.928,318.800 264.546,318.800 264.205 C 318.800 263.863,319.252 262.868,319.805 261.992 C 320.358 261.116,320.696 260.400,320.556 260.400 C 320.416 260.400,320.526 260.130,320.800 259.800 C 321.074 259.470,321.164 259.200,321.000 259.200 C 320.836 259.200,320.946 258.906,321.245 258.546 C 321.544 258.186,321.800 257.691,321.816 257.446 C 321.831 257.201,322.086 256.460,322.383 255.800 C 322.680 255.140,322.989 254.248,323.071 253.817 C 323.153 253.387,323.391 252.929,323.600 252.800 C 323.809 252.671,324.061 252.123,324.160 251.583 C 324.259 251.042,324.376 250.555,324.420 250.500 C 324.464 250.445,324.525 250.265,324.556 250.100 C 324.587 249.935,324.735 249.607,324.885 249.372 C 325.035 249.137,325.243 248.477,325.346 247.907 C 325.450 247.337,325.723 246.518,325.953 246.088 C 326.183 245.657,326.263 245.196,326.129 245.062 C 325.995 244.929,326.088 244.576,326.335 244.278 C 326.582 243.981,326.864 243.301,326.962 242.769 C 327.060 242.236,327.177 241.800,327.221 241.800 C 327.266 241.800,327.351 241.440,327.410 241.000 C 327.470 240.560,327.807 239.127,328.159 237.815 C 328.512 236.504,328.698 235.109,328.573 234.715 C 328.443 234.304,328.547 234.000,328.818 234.000 C 329.115 234.000,329.226 233.557,329.116 232.810 C 329.020 232.155,329.078 231.570,329.245 231.510 C 330.269 231.140,330.366 210.213,329.376 203.400 C 329.248 202.520,329.135 201.215,329.124 200.500 C 329.114 199.785,328.943 199.200,328.745 199.200 C 328.547 199.200,328.463 198.765,328.560 198.234 C 328.656 197.703,328.626 197.159,328.493 197.026 C 328.359 196.893,328.210 196.472,328.161 196.092 C 328.112 195.711,327.949 194.950,327.800 194.400 C 327.651 193.850,327.491 193.127,327.445 192.793 C 327.400 192.459,327.225 191.964,327.057 191.693 C 326.890 191.422,326.856 191.032,326.983 190.828 C 327.109 190.623,327.047 190.353,326.844 190.227 C 326.641 190.102,326.569 189.639,326.684 189.200 C 326.809 188.722,326.696 188.400,326.404 188.400 C 326.135 188.400,326.010 188.151,326.127 187.846 C 326.244 187.541,326.052 186.881,325.701 186.380 C 325.349 185.878,325.271 185.597,325.526 185.754 C 325.830 185.942,325.909 185.827,325.753 185.421 C 325.622 185.079,325.334 184.800,325.114 184.800 C 324.894 184.800,324.818 184.530,324.945 184.200 C 325.071 183.870,324.981 183.600,324.745 183.600 C 324.508 183.600,324.418 183.330,324.545 183.000 C 324.671 182.670,324.593 182.400,324.370 182.400 C 324.147 182.400,324.009 182.175,324.064 181.900 C 324.118 181.625,323.862 180.836,323.495 180.147 C 323.128 179.458,322.722 178.292,322.592 177.557 C 322.463 176.822,322.232 176.126,322.078 176.010 C 321.693 175.720,319.444 171.182,319.343 170.492 C 319.298 170.183,318.976 169.616,318.629 169.232 C 318.282 168.849,318.114 168.419,318.256 168.277 C 318.398 168.135,318.219 167.905,317.857 167.767 C 317.496 167.628,317.200 167.286,317.200 167.006 C 317.200 166.727,316.932 166.276,316.604 166.004 C 316.277 165.732,316.108 165.348,316.230 165.152 C 316.351 164.955,316.169 164.686,315.825 164.554 C 315.481 164.422,315.200 163.987,315.200 163.586 C 315.200 163.185,314.885 162.542,314.500 162.157 C 314.115 161.772,313.800 161.299,313.800 161.106 C 313.800 160.912,313.428 160.450,312.974 160.077 C 312.520 159.705,311.817 158.860,311.411 158.200 C 311.006 157.540,310.429 156.854,310.129 156.675 C 309.829 156.497,309.679 156.196,309.795 156.007 C 309.912 155.819,309.556 155.309,309.004 154.874 C 308.452 154.440,308.000 153.949,308.000 153.783 C 308.000 153.617,307.370 152.869,306.600 152.121 C 305.830 151.373,305.200 150.580,305.200 150.357 C 305.200 150.135,305.021 150.064,304.802 150.199 C 304.583 150.334,304.213 150.028,303.981 149.518 C 303.749 149.008,303.028 148.286,302.379 147.914 C 301.731 147.542,301.200 146.959,301.200 146.619 C 301.200 146.278,301.065 146.042,300.900 146.094 C 300.735 146.146,300.024 145.651,299.321 144.994 C 298.617 144.337,297.475 143.350,296.783 142.800 C 294.921 141.322,293.861 140.466,293.300 139.992 C 293.025 139.759,292.795 139.711,292.788 139.884 C 292.781 140.058,292.590 139.881,292.363 139.492 C 292.136 139.102,291.791 138.882,291.595 139.003 C 291.400 139.124,291.056 138.878,290.831 138.457 C 290.605 138.036,289.966 137.578,289.411 137.438 C 288.855 137.299,288.400 136.998,288.400 136.769 C 288.400 136.540,288.220 136.464,288.000 136.600 C 287.780 136.736,287.600 136.646,287.600 136.400 C 287.600 136.154,287.444 136.049,287.253 136.167 C 287.063 136.285,286.589 136.030,286.200 135.600 C 285.811 135.170,285.337 134.915,285.147 135.033 C 284.956 135.151,284.800 135.046,284.800 134.800 C 284.800 134.554,284.620 134.464,284.400 134.600 C 284.180 134.736,284.000 134.657,284.000 134.424 C 284.000 134.191,283.640 134.000,283.200 134.000 C 282.760 134.000,282.400 133.820,282.400 133.600 C 282.400 133.380,282.055 133.200,281.633 133.200 C 281.212 133.200,280.807 133.065,280.733 132.900 C 280.538 132.461,277.530 131.051,276.617 130.971 C 276.186 130.932,275.766 130.697,275.683 130.448 C 275.600 130.199,275.356 130.104,275.141 130.237 C 274.926 130.370,274.446 130.205,274.075 129.870 C 273.704 129.536,272.860 129.133,272.200 128.976 C 271.540 128.819,270.794 128.528,270.542 128.331 C 270.290 128.133,269.930 128.000,269.742 128.033 C 269.554 128.067,269.265 128.051,269.100 127.997 C 268.935 127.944,268.665 127.862,268.500 127.816 C 268.335 127.771,267.735 127.539,267.167 127.302 C 266.598 127.065,265.436 126.760,264.584 126.624 C 263.731 126.489,262.911 126.180,262.761 125.938 C 262.612 125.696,262.302 125.614,262.072 125.755 C 261.843 125.897,261.540 125.827,261.400 125.600 C 261.260 125.373,260.990 125.283,260.800 125.400 C 260.610 125.517,260.349 125.441,260.219 125.231 C 260.089 125.021,259.627 124.918,259.192 125.002 C 258.756 125.085,258.400 125.024,258.400 124.864 C 258.400 124.705,257.940 124.536,257.379 124.490 C 256.817 124.443,256.003 124.216,255.571 123.984 C 255.138 123.753,254.587 123.684,254.347 123.833 C 254.107 123.981,253.787 123.902,253.635 123.657 C 253.484 123.412,252.695 123.164,251.881 123.106 C 251.067 123.048,250.401 122.875,250.401 122.723 C 250.400 122.571,250.040 122.515,249.600 122.600 C 249.160 122.685,248.800 122.600,248.800 122.412 C 248.800 122.225,248.485 122.122,248.100 122.184 C 247.715 122.246,247.220 122.190,247.000 122.059 C 246.572 121.806,245.993 121.659,244.400 121.400 C 243.184 121.202,241.800 120.883,241.800 120.801 C 241.800 120.749,241.342 120.645,239.400 120.257 C 239.180 120.213,238.791 120.047,238.536 119.887 C 238.281 119.728,237.786 119.707,237.436 119.841 C 237.086 119.976,236.800 119.892,236.800 119.655 C 236.800 119.419,236.544 119.323,236.231 119.443 C 235.918 119.563,235.277 119.455,234.805 119.203 C 233.933 118.736,233.669 118.666,230.269 117.992 C 229.207 117.781,228.127 117.477,227.869 117.316 C 227.611 117.154,227.175 116.972,226.900 116.911 C 226.625 116.850,226.175 116.750,225.900 116.689 C 225.625 116.628,225.175 116.437,224.900 116.265 C 224.625 116.093,224.400 116.058,224.400 116.187 C 224.400 116.315,223.883 116.153,223.251 115.826 C 222.619 115.499,221.989 115.345,221.851 115.483 C 221.713 115.621,221.600 115.529,221.600 115.279 C 221.600 115.029,221.330 114.929,221.000 115.055 C 220.670 115.182,220.400 115.116,220.400 114.909 C 220.400 114.703,220.175 114.514,219.900 114.490 C 219.054 114.417,218.263 114.169,216.651 113.471 C 215.799 113.102,214.804 112.800,214.440 112.800 C 214.076 112.800,213.378 112.520,212.888 112.177 C 212.399 111.834,211.791 111.682,211.537 111.839 C 211.231 112.028,211.186 111.946,211.404 111.594 C 211.640 111.211,211.550 111.134,211.078 111.315 C 210.719 111.452,210.317 111.390,210.185 111.176 C 210.053 110.962,209.777 110.891,209.572 111.017 C 209.368 111.144,209.200 111.046,209.200 110.800 C 209.200 110.554,209.020 110.464,208.800 110.600 C 208.580 110.736,208.400 110.627,208.400 110.357 C 208.400 110.087,208.280 109.987,208.132 110.134 C 207.985 110.281,207.558 110.124,207.183 109.784 C 206.807 109.445,206.343 109.211,206.150 109.264 C 205.958 109.318,205.057 108.973,204.150 108.498 C 203.242 108.023,202.387 107.747,202.250 107.884 C 202.112 108.021,202.000 107.913,202.000 107.643 C 202.000 107.373,201.820 107.264,201.600 107.400 C 201.380 107.536,201.200 107.486,201.200 107.289 C 201.200 107.091,199.985 106.344,198.500 105.629 C 197.015 104.914,195.260 104.021,194.600 103.645 C 192.220 102.291,190.804 101.585,190.549 101.626 C 190.406 101.649,190.179 101.489,190.043 101.269 C 189.907 101.050,188.698 100.180,187.356 99.335 C 182.949 96.562,180.493 94.873,180.216 94.427 C 180.067 94.185,179.777 94.091,179.572 94.217 C 179.368 94.344,179.200 94.253,179.200 94.015 C 179.200 93.777,178.705 93.364,178.100 93.098 C 177.495 92.831,176.765 92.295,176.477 91.906 C 176.190 91.518,175.695 91.200,175.377 91.200 C 175.060 91.200,174.800 91.020,174.800 90.800 C 174.800 90.580,174.604 90.400,174.366 90.400 C 174.127 90.400,173.336 89.839,172.609 89.153 C 171.883 88.468,171.144 87.883,170.968 87.853 C 170.792 87.824,169.737 86.946,168.624 85.903 C 167.511 84.860,166.400 84.005,166.156 84.003 C 165.912 84.001,165.382 83.561,164.979 83.024 C 164.576 82.487,164.121 82.125,163.968 82.220 C 163.816 82.314,163.445 82.089,163.145 81.719 C 162.677 81.141,162.685 81.090,163.200 81.353 C 163.530 81.521,163.440 81.382,163.000 81.043 C 162.560 80.704,161.983 80.241,161.717 80.014 C 161.451 79.786,161.016 79.600,160.750 79.600 C 160.484 79.600,160.368 79.499,160.491 79.376 C 160.702 79.165,158.976 77.200,158.579 77.200 C 158.209 77.200,152.000 70.734,152.000 70.349 C 152.000 70.131,151.840 70.051,151.645 70.172 C 151.450 70.293,151.045 70.089,150.745 69.719 C 150.276 69.141,150.284 69.094,150.800 69.385 C 151.130 69.571,151.040 69.356,150.600 68.908 C 150.160 68.460,149.628 68.117,149.418 68.146 C 149.208 68.176,149.028 68.007,149.018 67.771 C 148.995 67.214,147.777 66.000,147.241 66.000 C 146.728 66.000,147.083 67.043,148.092 68.500 C 148.512 69.105,148.748 69.600,148.617 69.600 C 148.486 69.600,148.659 70.140,149.000 70.800 C 149.341 71.460,149.520 72.000,149.396 72.000 C 149.273 72.000,149.397 72.405,149.672 72.900 C 149.947 73.395,150.178 73.926,150.186 74.080 C 150.194 74.234,150.411 74.571,150.669 74.829 C 150.927 75.087,151.042 75.546,150.926 75.849 C 150.810 76.152,150.924 76.400,151.181 76.400 C 151.437 76.400,151.531 76.588,151.389 76.818 C 151.247 77.047,151.355 77.505,151.629 77.834 C 152.005 78.289,152.014 78.546,151.663 78.897 C 151.312 79.248,151.200 79.247,151.200 78.896 C 151.200 78.640,150.806 78.064,150.325 77.616 C 149.843 77.167,149.579 76.800,149.739 76.800 C 149.898 76.800,149.833 76.435,149.594 75.989 C 149.355 75.543,148.961 75.300,148.718 75.451 C 148.452 75.615,148.390 75.540,148.562 75.262 C 148.719 75.008,148.646 74.800,148.400 74.800 C 148.154 74.800,148.058 74.629,148.188 74.420 C 148.317 74.211,148.057 73.845,147.611 73.606 C 147.165 73.367,146.800 72.833,146.800 72.419 C 146.800 72.005,146.610 71.603,146.378 71.526 C 146.146 71.449,145.911 71.119,145.856 70.793 C 145.801 70.467,145.416 69.570,145.000 68.800 C 144.584 68.030,144.208 67.198,144.165 66.951 C 144.038 66.229,142.740 64.400,142.354 64.400 C 141.872 64.400,141.908 64.948,142.425 65.465 C 142.659 65.699,142.866 66.455,142.886 67.145 C 142.906 67.835,143.094 68.400,143.304 68.400 C 143.514 68.400,143.582 68.670,143.455 69.000 C 143.329 69.330,143.369 69.600,143.546 69.600 C 143.722 69.600,143.886 69.825,143.910 70.100 C 143.960 70.680,144.301 72.153,144.419 72.300 C 144.464 72.355,144.525 72.535,144.556 72.700 C 144.587 72.865,144.745 73.209,144.907 73.464 C 145.070 73.719,145.093 74.214,144.959 74.564 C 144.818 74.930,144.920 75.200,145.200 75.200 C 145.467 75.200,145.582 75.470,145.455 75.800 C 145.329 76.130,145.394 76.400,145.600 76.400 C 145.806 76.400,145.871 76.670,145.745 77.000 C 145.618 77.330,145.733 77.600,146.000 77.600 C 146.267 77.600,146.400 77.825,146.295 78.100 C 146.191 78.375,146.288 79.050,146.512 79.600 C 146.990 80.776,147.230 81.608,147.290 82.300 C 147.314 82.575,147.478 82.800,147.654 82.800 C 147.831 82.800,147.871 83.070,147.745 83.400 C 147.618 83.730,147.724 84.000,147.981 84.000 C 148.237 84.000,148.356 84.148,148.244 84.329 C 148.132 84.509,148.268 85.094,148.545 85.629 C 149.168 86.830,149.200 86.957,149.200 88.224 C 149.200 88.903,149.357 89.150,149.668 88.958 C 149.983 88.764,150.052 88.887,149.881 89.334 C 149.740 89.700,149.788 90.000,149.988 90.000 C 150.187 90.000,150.345 90.315,150.338 90.700 C 150.320 91.665,150.662 92.994,151.172 93.948 C 151.407 94.388,151.600 95.119,151.600 95.574 C 151.600 96.028,151.810 96.400,152.067 96.400 C 152.323 96.400,152.415 96.518,152.270 96.663 C 152.125 96.808,152.192 97.149,152.418 97.421 C 152.643 97.693,152.793 98.070,152.751 98.258 C 152.708 98.446,152.809 98.960,152.975 99.400 C 153.639 101.160,153.726 101.429,153.868 102.169 C 153.949 102.591,154.214 103.176,154.457 103.469 C 154.699 103.761,154.764 104.000,154.600 104.000 C 154.436 104.000,154.526 104.270,154.800 104.600 C 155.074 104.930,155.164 105.200,155.000 105.200 C 154.836 105.200,154.949 105.505,155.251 105.877 C 155.553 106.249,155.592 106.429,155.339 106.277 C 154.885 106.005,155.986 109.458,156.818 110.916 C 157.043 111.310,157.120 111.805,156.990 112.016 C 156.860 112.227,156.973 112.400,157.243 112.400 C 157.513 112.400,157.621 112.513,157.483 112.651 C 157.345 112.789,157.488 113.396,157.800 114.000 C 158.112 114.604,158.271 115.196,158.152 115.315 C 158.033 115.433,158.221 115.966,158.569 116.497 C 158.918 117.029,159.098 117.569,158.969 117.697 C 158.841 117.826,159.035 118.387,159.400 118.944 C 159.766 119.502,160.050 120.057,160.032 120.179 C 160.014 120.301,160.023 120.490,160.050 120.600 C 160.078 120.710,160.130 120.935,160.166 121.100 C 160.203 121.265,160.668 122.660,161.200 124.200 C 161.732 125.740,162.175 127.120,162.184 127.267 C 162.193 127.413,162.323 127.656,162.472 127.806 C 162.622 127.956,162.648 128.331,162.530 128.639 C 162.411 128.948,162.524 129.200,162.781 129.200 C 163.037 129.200,163.144 129.368,163.017 129.572 C 162.891 129.777,162.946 130.043,163.141 130.163 C 163.336 130.284,163.612 131.061,163.755 131.891 C 163.898 132.721,164.353 134.109,164.766 134.975 C 165.179 135.842,165.426 136.787,165.316 137.075 C 165.205 137.364,165.314 137.600,165.557 137.600 C 165.801 137.600,165.979 137.735,165.953 137.900 C 165.927 138.065,165.940 138.290,165.983 138.400 C 166.066 138.613,166.166 138.993,166.721 141.206 C 166.915 141.980,167.408 143.317,167.816 144.178 C 168.225 145.039,168.535 146.071,168.505 146.472 C 168.474 146.872,168.589 147.200,168.758 147.200 C 168.928 147.200,169.095 147.425,169.130 147.700 C 169.164 147.975,169.269 148.650,169.363 149.200 C 169.457 149.750,169.548 150.436,169.567 150.724 C 169.585 151.015,169.805 151.120,170.063 150.961 C 170.380 150.765,170.455 150.947,170.300 151.538 C 170.176 152.013,170.238 152.300,170.437 152.177 C 170.770 151.971,170.954 152.646,170.907 153.900 C 170.897 154.175,171.038 154.400,171.220 154.400 C 171.401 154.400,171.545 154.715,171.538 155.100 C 171.520 156.082,172.091 157.956,173.884 162.800 C 174.006 163.130,174.163 163.834,174.232 164.364 C 174.302 164.894,174.503 165.434,174.680 165.564 C 174.856 165.694,175.063 166.070,175.141 166.400 C 175.798 169.201,176.514 171.460,177.143 172.712 C 177.553 173.530,177.809 174.425,177.711 174.700 C 177.613 174.975,177.728 175.200,177.967 175.200 C 178.205 175.200,178.400 175.740,178.400 176.400 C 178.400 177.060,178.580 177.600,178.800 177.600 C 179.020 177.600,179.200 178.140,179.200 178.800 C 179.200 179.460,179.358 180.000,179.550 180.000 C 179.917 180.000,180.558 182.241,180.436 183.100 C 180.397 183.375,180.553 183.600,180.782 183.600 C 181.012 183.600,181.200 184.129,181.200 184.776 C 181.200 185.423,181.380 186.064,181.600 186.200 C 181.820 186.336,182.000 186.797,182.000 187.224 C 182.000 187.651,182.170 188.000,182.377 188.000 C 182.584 188.000,182.684 188.365,182.598 188.811 C 182.512 189.257,182.612 189.516,182.821 189.387 C 183.029 189.258,183.200 189.512,183.200 189.950 C 183.200 190.389,183.358 191.165,183.552 191.674 C 183.746 192.183,183.924 192.736,183.948 192.902 C 183.971 193.068,184.263 193.855,184.595 194.651 C 184.928 195.447,185.200 196.436,185.200 196.849 C 185.200 197.262,185.342 197.600,185.515 197.600 C 185.688 197.600,185.859 197.989,185.895 198.464 C 185.931 198.939,186.110 199.434,186.293 199.564 C 186.477 199.694,186.636 200.070,186.648 200.400 C 186.669 200.986,186.925 201.784,187.613 203.400 C 187.800 203.840,188.069 204.787,188.209 205.503 C 188.350 206.220,188.628 206.706,188.828 206.583 C 189.028 206.459,189.084 206.638,188.953 206.979 C 188.821 207.322,188.924 207.600,189.181 207.600 C 189.437 207.600,189.544 207.767,189.419 207.970 C 189.293 208.174,189.409 208.820,189.676 209.407 C 190.127 210.398,188.974 212.117,188.010 211.891 C 187.483 211.767,185.755 212.580,185.314 213.158 C 185.045 213.511,184.820 213.648,184.813 213.462 C 184.806 213.276,184.025 213.578,183.077 214.133 C 181.279 215.187,180.490 215.087,180.227 213.771 C 179.719 211.227,179.055 209.200,178.729 209.200 C 178.522 209.200,178.462 209.024,178.595 208.808 C 178.728 208.593,178.629 208.028,178.375 207.553 C 178.121 207.078,177.826 206.130,177.720 205.445 C 177.614 204.760,177.363 204.140,177.161 204.066 C 176.960 203.992,176.897 203.767,177.021 203.566 C 177.145 203.365,177.107 202.975,176.935 202.700 C 176.764 202.425,176.578 201.910,176.522 201.555 C 176.467 201.200,176.204 200.390,175.938 199.755 C 175.672 199.120,175.423 198.301,175.384 197.935 C 175.345 197.570,175.168 196.940,174.991 196.535 C 174.608 195.661,174.638 195.761,174.231 194.000 C 174.053 193.230,173.726 192.375,173.505 192.100 C 173.283 191.825,173.205 191.600,173.331 191.600 C 173.456 191.600,173.306 190.993,172.995 190.251 C 172.685 189.509,172.545 188.789,172.683 188.651 C 172.820 188.513,172.746 188.400,172.517 188.400 C 172.287 188.400,172.100 187.930,172.100 187.355 C 172.100 186.779,171.874 186.170,171.599 185.999 C 171.323 185.829,171.221 185.489,171.372 185.245 C 171.524 185.000,171.467 184.800,171.247 184.800 C 171.026 184.800,170.916 184.435,171.002 183.989 C 171.088 183.543,170.988 183.284,170.779 183.413 C 170.571 183.542,170.379 183.412,170.354 183.124 C 170.177 181.093,169.982 180.261,169.564 179.757 C 169.301 179.440,169.188 179.079,169.312 178.954 C 169.526 178.740,168.826 176.357,168.033 174.600 C 167.398 173.191,167.071 172.208,167.136 171.900 C 167.171 171.735,167.001 171.600,166.757 171.600 C 166.514 171.600,166.417 171.333,166.542 171.006 C 166.668 170.680,166.524 169.915,166.224 169.306 C 165.090 167.006,164.400 165.146,164.400 164.386 C 164.400 163.954,164.220 163.600,164.000 163.600 C 163.780 163.600,163.600 163.060,163.600 162.400 C 163.600 161.740,163.420 161.200,163.200 161.200 C 162.980 161.200,162.821 161.065,162.847 160.900 C 162.873 160.735,162.859 160.510,162.814 160.400 C 162.770 160.290,162.648 159.660,162.543 159.000 C 162.437 158.340,162.182 157.740,161.975 157.666 C 161.768 157.593,161.486 156.828,161.348 155.966 C 161.210 155.105,160.930 154.400,160.725 154.400 C 160.520 154.400,160.464 154.220,160.600 154.000 C 160.736 153.780,160.649 153.600,160.406 153.600 C 160.163 153.600,159.994 153.375,160.030 153.100 C 160.172 152.006,159.972 151.229,159.402 150.659 C 159.073 150.331,158.748 149.692,158.679 149.241 C 158.610 148.790,158.442 148.308,158.305 148.171 C 158.167 148.034,158.152 147.669,158.270 147.361 C 158.389 147.052,158.325 146.800,158.128 146.800 C 157.931 146.800,157.741 146.411,157.705 145.936 C 157.669 145.461,157.496 144.966,157.320 144.836 C 157.144 144.706,156.938 144.163,156.863 143.629 C 156.787 143.095,156.472 142.271,156.161 141.797 C 155.851 141.324,155.718 140.816,155.865 140.668 C 156.013 140.521,155.929 140.400,155.679 140.400 C 155.420 140.400,155.335 140.114,155.481 139.734 C 155.651 139.290,155.582 139.164,155.273 139.355 C 154.970 139.542,154.892 139.426,155.047 139.021 C 155.178 138.679,155.086 138.400,154.843 138.400 C 154.599 138.400,154.421 138.265,154.447 138.100 C 154.473 137.935,154.451 137.665,154.397 137.500 C 154.344 137.335,154.263 137.065,154.217 136.900 C 153.658 134.868,153.466 134.400,153.192 134.400 C 153.015 134.400,152.749 133.681,152.600 132.802 C 152.452 131.923,152.166 131.103,151.965 130.978 C 151.764 130.854,151.600 130.303,151.600 129.753 C 151.600 129.091,151.442 128.851,151.132 129.042 C 150.817 129.236,150.748 129.113,150.919 128.666 C 151.060 128.300,150.990 128.000,150.764 128.000 C 150.538 128.000,150.464 127.820,150.600 127.600 C 150.736 127.380,150.657 127.200,150.424 127.200 C 150.191 127.200,150.000 126.870,150.000 126.467 C 150.000 126.063,149.875 125.609,149.723 125.456 C 149.571 125.304,149.391 124.819,149.324 124.378 C 149.256 123.937,148.751 122.687,148.201 121.601 C 147.650 120.515,147.200 119.261,147.200 118.813 C 147.200 118.366,147.026 118.000,146.813 118.000 C 146.599 118.000,146.520 117.753,146.636 117.452 C 146.751 117.150,146.554 116.611,146.198 116.255 C 145.841 115.898,145.652 115.439,145.778 115.235 C 145.904 115.031,145.723 114.580,145.375 114.232 C 145.027 113.885,144.866 113.600,145.017 113.600 C 145.168 113.600,145.016 113.178,144.678 112.663 C 144.340 112.147,144.005 111.382,143.932 110.963 C 143.859 110.543,143.670 110.102,143.510 109.983 C 143.351 109.863,143.159 109.366,143.085 108.877 C 143.010 108.389,142.750 107.790,142.506 107.546 C 142.262 107.302,142.158 106.854,142.274 106.551 C 142.390 106.248,142.286 106.000,142.043 106.000 C 141.799 106.000,141.629 105.865,141.664 105.700 C 141.698 105.535,141.626 105.130,141.502 104.800 C 141.208 104.017,140.759 102.654,140.710 102.400 C 140.690 102.290,140.258 101.458,139.752 100.551 C 139.246 99.644,138.944 98.789,139.082 98.651 C 139.220 98.513,139.162 98.400,138.952 98.400 C 138.742 98.400,138.540 97.998,138.503 97.507 C 138.436 96.613,137.630 94.776,137.141 94.400 C 136.997 94.290,136.817 93.840,136.740 93.400 C 136.663 92.960,136.453 92.492,136.273 92.360 C 136.094 92.228,135.883 91.778,135.804 91.360 C 135.725 90.942,135.627 90.510,135.584 90.400 C 135.542 90.290,135.464 90.020,135.411 89.800 C 135.102 88.515,134.662 87.600,134.353 87.600 C 134.159 87.600,134.000 87.172,134.000 86.649 C 134.000 86.126,133.741 85.483,133.424 85.220 C 133.107 84.957,132.946 84.485,133.067 84.171 C 133.187 83.857,133.067 83.600,132.800 83.600 C 132.533 83.600,132.405 83.364,132.516 83.075 C 132.626 82.787,132.394 82.123,132.000 81.600 C 131.606 81.077,131.374 80.413,131.484 80.125 C 131.595 79.836,131.507 79.600,131.289 79.600 C 131.072 79.600,130.762 79.195,130.600 78.700 C 130.202 77.474,130.116 77.232,130.000 77.000 C 129.945 76.890,129.862 76.665,129.816 76.500 C 129.771 76.335,129.545 75.750,129.314 75.200 C 129.084 74.650,128.861 74.020,128.819 73.800 C 128.776 73.580,128.397 72.843,127.976 72.161 C 127.555 71.480,127.328 70.805,127.472 70.661 C 127.616 70.518,127.513 70.400,127.243 70.400 C 126.973 70.400,126.865 70.219,127.002 69.997 C 127.139 69.776,126.844 69.023,126.347 68.325 C 125.849 67.627,125.671 67.197,125.951 67.370 C 126.514 67.718,125.693 66.016,125.080 65.564 C 124.904 65.434,124.731 64.939,124.695 64.464 C 124.659 63.989,124.488 63.600,124.315 63.600 C 124.142 63.600,124.000 63.362,124.000 63.071 C 124.000 62.781,123.657 61.837,123.237 60.974 C 122.817 60.111,122.575 59.241,122.699 59.041 C 122.822 58.840,122.728 58.797,122.489 58.945 C 122.225 59.108,122.004 58.780,121.926 58.107 L 121.797 57.000 121.379 58.200 M154.284 82.000 C 154.399 82.440,154.663 82.800,154.870 82.800 C 155.078 82.800,155.144 82.967,155.018 83.171 C 154.892 83.375,155.154 83.658,155.600 83.800 C 156.046 83.942,156.308 84.225,156.182 84.429 C 156.056 84.633,156.143 84.800,156.376 84.800 C 156.609 84.800,156.800 85.081,156.800 85.424 C 156.800 85.767,156.980 85.936,157.200 85.800 C 157.420 85.664,157.600 85.844,157.600 86.200 C 157.600 86.556,157.780 86.736,158.000 86.600 C 158.220 86.464,158.400 86.542,158.400 86.773 C 158.400 87.004,158.940 87.709,159.600 88.340 C 160.260 88.971,160.800 89.698,160.800 89.956 C 160.800 90.214,161.070 90.529,161.400 90.655 C 161.730 90.782,162.000 91.147,162.000 91.466 C 162.000 91.786,162.172 91.941,162.383 91.811 C 162.594 91.680,163.048 92.120,163.393 92.787 C 163.738 93.454,164.175 94.000,164.364 94.000 C 164.552 94.000,164.811 94.397,164.937 94.883 C 165.064 95.368,165.289 95.644,165.437 95.496 C 165.740 95.193,167.455 97.215,167.300 97.692 C 167.245 97.862,167.417 97.955,167.682 97.900 C 167.947 97.845,168.180 98.070,168.200 98.400 C 168.220 98.730,168.453 98.955,168.718 98.900 C 168.983 98.845,169.200 99.027,169.200 99.305 C 169.200 99.583,169.647 100.146,170.192 100.555 C 170.738 100.965,171.069 101.503,170.928 101.750 C 170.787 101.998,170.822 102.063,171.006 101.896 C 171.396 101.543,173.200 103.116,173.200 103.810 C 173.200 104.069,173.740 104.694,174.400 105.200 C 175.060 105.706,175.600 106.373,175.600 106.683 C 175.600 106.994,175.767 107.144,175.971 107.018 C 176.175 106.892,176.462 107.165,176.608 107.624 C 176.754 108.084,176.962 108.372,177.070 108.263 C 177.288 108.045,178.800 109.445,178.800 109.867 C 178.800 110.013,179.783 111.138,180.984 112.367 C 182.185 113.595,183.647 115.193,184.234 115.917 C 184.820 116.641,185.399 117.135,185.520 117.013 C 185.828 116.705,187.619 118.446,187.384 118.825 C 187.280 118.995,187.738 119.554,188.404 120.067 C 189.070 120.580,190.673 122.035,191.968 123.300 C 193.262 124.565,194.466 125.600,194.643 125.600 C 194.820 125.600,195.978 126.635,197.216 127.900 C 198.455 129.165,200.131 130.706,200.943 131.324 C 201.754 131.942,202.321 132.604,202.203 132.795 C 202.085 132.986,202.351 133.257,202.794 133.398 C 203.237 133.539,203.600 133.822,203.600 134.027 C 203.600 134.232,203.881 134.400,204.224 134.400 C 204.567 134.400,204.736 134.580,204.600 134.801 C 204.463 135.021,204.792 135.369,205.329 135.573 C 205.866 135.777,206.707 136.507,207.197 137.195 C 207.686 137.883,208.163 138.370,208.256 138.277 C 208.349 138.185,209.357 138.984,210.497 140.054 C 211.637 141.124,212.704 142.000,212.869 142.000 C 213.034 142.000,213.931 142.765,214.863 143.700 C 215.794 144.635,216.417 145.130,216.248 144.800 C 216.078 144.470,216.313 144.625,216.770 145.144 C 217.226 145.664,217.600 145.946,217.600 145.772 C 217.600 145.597,218.252 146.162,219.048 147.027 C 219.844 147.892,220.371 148.330,220.218 148.000 C 220.066 147.670,220.329 147.895,220.804 148.500 C 221.278 149.105,221.882 149.600,222.144 149.600 C 222.407 149.600,223.191 150.120,223.888 150.756 C 224.584 151.392,225.254 151.812,225.377 151.690 C 225.500 151.567,225.600 151.677,225.600 151.933 C 225.600 152.190,225.881 152.400,226.224 152.400 C 226.567 152.400,226.736 152.580,226.600 152.800 C 226.464 153.020,226.535 153.200,226.759 153.200 C 227.281 153.200,230.090 155.102,230.485 155.724 C 230.652 155.986,230.791 156.041,230.794 155.846 C 230.797 155.651,231.174 155.968,231.632 156.550 C 232.090 157.132,232.618 157.512,232.806 157.396 C 232.994 157.280,233.610 157.646,234.174 158.211 C 234.738 158.775,235.205 159.093,235.212 158.918 C 235.219 158.743,235.410 158.919,235.637 159.308 C 235.864 159.698,236.218 159.912,236.425 159.785 C 236.631 159.657,236.800 159.749,236.800 159.989 C 236.800 160.229,237.115 160.541,237.500 160.683 C 237.885 160.824,238.606 161.369,239.102 161.893 C 239.598 162.416,240.184 162.733,240.405 162.597 C 240.625 162.461,240.914 162.631,241.046 162.975 C 241.178 163.319,241.517 163.600,241.800 163.600 C 242.083 163.600,242.422 163.881,242.554 164.225 C 242.686 164.569,242.943 164.759,243.124 164.647 C 243.306 164.535,243.918 164.873,244.484 165.398 C 245.051 165.923,245.623 166.243,245.757 166.110 C 245.891 165.976,246.000 166.077,246.000 166.333 C 246.000 166.590,246.270 166.800,246.600 166.800 C 246.930 166.800,247.200 166.991,247.200 167.224 C 247.200 167.457,247.352 167.553,247.539 167.438 C 247.725 167.323,248.400 167.728,249.039 168.339 C 249.677 168.950,250.785 169.685,251.500 169.973 C 252.215 170.261,252.800 170.664,252.800 170.868 C 252.800 171.072,253.494 171.550,254.342 171.929 C 255.728 172.550,255.820 172.679,255.251 173.210 C 254.904 173.534,254.570 173.755,254.510 173.700 C 254.198 173.416,253.643 173.753,252.044 175.195 C 251.079 176.066,250.134 176.683,249.944 176.566 C 249.755 176.449,249.600 176.523,249.600 176.731 C 249.600 176.939,248.970 177.408,248.200 177.773 C 247.430 178.139,246.800 178.609,246.800 178.819 C 246.800 179.028,246.665 179.179,246.500 179.153 C 245.785 179.040,245.088 179.221,245.325 179.459 C 245.468 179.601,244.688 180.133,243.592 180.640 C 242.496 181.148,241.594 181.706,241.587 181.882 C 241.581 182.057,241.101 182.546,240.522 182.968 C 239.841 183.465,239.573 183.535,239.764 183.168 C 239.926 182.856,239.801 182.915,239.486 183.300 C 239.170 183.685,238.707 184.000,238.456 184.000 C 238.205 184.000,238.000 184.191,238.000 184.424 C 238.000 184.657,237.839 184.748,237.642 184.626 C 237.445 184.504,237.176 184.685,237.045 185.028 C 236.913 185.370,236.624 185.539,236.403 185.402 C 236.181 185.265,236.000 185.354,236.000 185.600 C 236.000 185.846,235.831 185.943,235.625 185.815 C 235.418 185.688,235.064 185.902,234.837 186.292 C 234.610 186.681,234.419 186.834,234.412 186.630 C 234.405 186.427,233.921 186.697,233.335 187.230 C 232.750 187.764,232.406 187.930,232.570 187.600 C 232.735 187.270,232.478 187.450,232.000 188.000 C 231.522 188.550,231.264 188.730,231.427 188.400 C 231.590 188.070,231.188 188.298,230.534 188.906 C 229.880 189.514,229.222 189.889,229.072 189.739 C 228.923 189.589,228.800 189.677,228.800 189.933 C 228.800 190.190,228.607 190.400,228.371 190.400 C 228.136 190.400,227.673 190.670,227.343 191.000 C 227.013 191.330,226.415 191.600,226.014 191.600 C 225.613 191.600,225.188 191.853,225.070 192.162 C 224.951 192.472,224.290 192.849,223.600 193.000 C 222.910 193.151,222.249 193.528,222.130 193.838 C 222.012 194.147,221.608 194.400,221.233 194.400 C 220.858 194.400,220.164 194.760,219.692 195.200 C 219.220 195.640,218.556 196.000,218.217 196.000 C 217.878 196.000,217.600 196.191,217.600 196.424 C 217.600 196.657,217.420 196.736,217.200 196.600 C 216.980 196.464,216.799 196.498,216.797 196.676 C 216.793 197.054,214.880 198.000,214.120 198.000 C 213.834 198.000,213.600 197.822,213.600 197.605 C 213.600 197.387,213.285 196.841,212.900 196.392 C 212.515 195.942,212.221 195.445,212.246 195.287 C 212.272 195.129,211.954 194.763,211.540 194.473 C 211.125 194.183,210.891 193.776,211.019 193.570 C 211.146 193.363,210.969 193.086,210.625 192.954 C 210.281 192.822,210.000 192.374,210.000 191.957 C 210.000 191.541,209.822 191.200,209.605 191.200 C 209.388 191.200,208.948 190.570,208.626 189.800 C 208.304 189.030,207.841 188.400,207.597 188.400 C 207.353 188.400,207.247 188.247,207.363 188.061 C 207.478 187.874,207.229 187.353,206.810 186.903 C 206.391 186.453,206.153 185.980,206.281 185.852 C 206.410 185.724,206.219 185.505,205.857 185.367 C 205.496 185.228,205.200 184.879,205.200 184.591 C 205.200 184.302,205.018 184.006,204.796 183.932 C 204.574 183.858,204.308 183.348,204.205 182.799 C 204.102 182.249,203.654 181.553,203.209 181.251 C 202.764 180.949,202.400 180.454,202.400 180.151 C 202.400 179.848,202.262 179.600,202.094 179.600 C 201.926 179.600,201.477 178.880,201.096 178.000 C 200.714 177.120,200.211 176.400,199.978 176.400 C 199.744 176.400,199.665 176.219,199.802 175.997 C 199.939 175.776,199.770 175.487,199.428 175.355 C 199.085 175.224,198.901 174.960,199.019 174.769 C 199.137 174.578,198.866 174.107,198.417 173.722 C 197.968 173.337,197.600 172.692,197.600 172.287 C 197.600 171.883,197.420 171.664,197.200 171.800 C 196.980 171.936,196.800 171.857,196.800 171.624 C 196.800 170.744,196.728 170.591,196.163 170.275 C 195.844 170.097,195.688 169.781,195.817 169.573 C 195.946 169.365,195.770 169.087,195.428 168.955 C 195.085 168.824,194.904 168.555,195.026 168.358 C 195.148 168.161,195.046 168.000,194.800 168.000 C 194.554 168.000,194.464 167.820,194.600 167.600 C 194.736 167.380,194.647 167.200,194.403 167.200 C 194.158 167.200,193.770 166.660,193.540 166.000 C 193.310 165.340,192.949 164.800,192.737 164.800 C 192.526 164.800,192.464 164.620,192.600 164.400 C 192.736 164.180,192.676 164.000,192.467 164.000 C 192.258 164.000,191.974 163.550,191.836 163.000 C 191.698 162.450,191.398 162.000,191.169 162.000 C 190.940 162.000,190.864 161.820,191.000 161.600 C 191.136 161.380,191.046 161.200,190.800 161.200 C 190.554 161.200,190.465 161.019,190.602 160.797 C 190.739 160.576,190.571 160.287,190.230 160.156 C 189.888 160.025,189.418 159.211,189.186 158.347 C 188.953 157.483,188.591 156.882,188.381 157.012 C 188.172 157.141,187.986 157.102,187.969 156.924 C 187.860 155.766,187.587 155.073,187.080 154.666 C 186.760 154.410,186.172 153.435,185.772 152.500 C 185.373 151.565,184.890 150.800,184.699 150.800 C 184.509 150.800,184.451 150.640,184.572 150.445 C 184.693 150.250,184.525 149.870,184.200 149.600 C 183.875 149.330,183.707 148.950,183.828 148.755 C 183.949 148.560,183.846 148.400,183.600 148.400 C 183.354 148.400,183.249 148.244,183.367 148.053 C 183.485 147.863,183.236 147.394,182.813 147.012 C 182.391 146.630,181.931 145.796,181.791 145.159 C 181.651 144.521,181.360 144.000,181.145 144.000 C 180.929 144.000,180.855 143.835,180.980 143.632 C 181.105 143.430,180.971 143.025,180.681 142.732 C 180.230 142.275,179.571 141.053,179.424 140.400 C 179.399 140.290,179.078 139.750,178.710 139.200 C 178.123 138.322,176.296 134.542,176.197 134.000 C 176.024 133.052,175.473 132.000,175.149 132.000 C 174.931 132.000,174.864 131.820,175.000 131.600 C 175.136 131.380,175.069 131.200,174.851 131.200 C 174.453 131.200,173.772 129.663,173.921 129.100 C 173.964 128.935,173.809 128.800,173.576 128.800 C 173.343 128.800,173.251 128.640,173.372 128.445 C 173.493 128.250,173.325 127.870,173.000 127.600 C 172.675 127.330,172.507 126.950,172.628 126.755 C 172.749 126.560,172.646 126.400,172.400 126.400 C 172.154 126.400,172.056 126.232,172.183 126.028 C 172.309 125.823,172.230 125.542,172.007 125.404 C 171.783 125.266,171.600 124.803,171.600 124.376 C 171.600 123.949,171.409 123.600,171.176 123.600 C 170.943 123.600,170.864 123.420,171.000 123.200 C 171.136 122.980,171.042 122.800,170.790 122.800 C 170.539 122.800,170.409 122.575,170.502 122.300 C 170.594 122.025,170.384 121.562,170.035 121.270 C 169.540 120.857,169.532 120.806,170.000 121.039 C 170.401 121.239,170.348 121.050,169.838 120.469 C 169.419 119.991,169.207 119.600,169.367 119.600 C 169.526 119.600,169.382 119.325,169.046 118.988 C 168.709 118.652,168.527 118.135,168.640 117.840 C 168.753 117.545,168.566 117.196,168.223 117.064 C 167.880 116.933,167.600 116.369,167.600 115.813 C 167.600 115.256,167.409 114.800,167.176 114.800 C 166.943 114.800,166.864 114.620,167.000 114.400 C 167.136 114.180,167.046 114.000,166.800 114.000 C 166.554 114.000,166.464 113.820,166.600 113.600 C 166.736 113.380,166.646 113.200,166.400 113.200 C 166.154 113.200,166.076 113.000,166.228 112.755 C 166.379 112.511,166.287 112.178,166.025 112.015 C 165.762 111.853,165.505 111.468,165.454 111.160 C 165.403 110.852,165.152 110.219,164.895 109.753 C 164.638 109.287,164.542 108.792,164.681 108.653 C 164.820 108.514,164.713 108.400,164.443 108.400 C 164.173 108.400,164.055 108.235,164.179 108.034 C 164.303 107.833,164.234 107.608,164.026 107.534 C 163.818 107.460,163.550 106.861,163.432 106.203 C 163.314 105.545,163.034 104.945,162.809 104.870 C 162.584 104.795,162.400 104.298,162.400 103.767 C 162.400 103.235,162.220 102.800,162.000 102.800 C 161.780 102.800,161.600 102.451,161.600 102.024 C 161.600 101.597,161.417 101.134,161.193 100.996 C 160.970 100.858,160.891 100.577,161.017 100.372 C 161.144 100.168,161.037 100.000,160.781 100.000 C 160.524 100.000,160.413 99.743,160.533 99.429 C 160.654 99.115,160.495 98.645,160.181 98.384 C 159.866 98.123,159.707 97.750,159.828 97.555 C 159.949 97.360,159.846 97.200,159.600 97.200 C 159.354 97.200,159.244 97.052,159.356 96.872 C 159.467 96.691,159.198 95.951,158.758 95.227 C 158.317 94.502,158.048 93.819,158.159 93.707 C 158.271 93.596,158.100 93.243,157.781 92.924 C 157.461 92.604,157.200 92.006,157.200 91.595 C 157.200 91.184,157.028 90.741,156.817 90.611 C 156.607 90.481,156.536 90.110,156.660 89.787 C 156.784 89.464,156.707 89.200,156.489 89.200 C 156.063 89.200,155.474 87.720,155.574 86.900 C 155.608 86.625,155.437 86.400,155.194 86.400 C 154.951 86.400,154.856 86.232,154.983 86.028 C 155.109 85.823,155.027 85.540,154.800 85.400 C 154.573 85.260,154.491 84.977,154.617 84.772 C 154.744 84.568,154.662 84.400,154.436 84.400 C 154.210 84.400,154.140 84.100,154.281 83.734 C 154.437 83.328,154.375 83.168,154.123 83.324 C 153.882 83.473,153.732 83.209,153.762 82.690 C 153.790 82.200,153.540 81.678,153.206 81.528 C 152.718 81.309,152.744 81.251,153.337 81.228 C 153.754 81.212,154.166 81.549,154.284 82.000 M270.800 182.986 C 270.800 182.799,271.064 182.996,271.387 183.424 C 271.710 183.851,271.980 184.065,271.987 183.901 C 271.994 183.736,272.764 184.321,273.698 185.201 C 274.632 186.080,275.617 186.800,275.889 186.800 C 276.160 186.800,276.687 187.266,277.061 187.836 C 277.434 188.407,278.169 189.036,278.694 189.236 C 279.219 189.435,279.534 189.783,279.394 190.009 C 279.255 190.235,279.371 190.370,279.652 190.310 C 279.933 190.249,280.172 190.425,280.182 190.700 C 280.192 190.975,280.380 191.235,280.600 191.278 C 281.223 191.399,281.936 192.167,281.734 192.500 C 281.635 192.665,281.839 192.800,282.189 192.800 C 282.539 192.800,282.943 193.115,283.086 193.500 C 283.230 193.885,283.674 194.435,284.074 194.723 C 284.473 195.010,284.800 195.479,284.800 195.764 C 284.800 196.050,285.241 196.760,285.781 197.342 C 286.797 198.438,290.000 204.815,290.000 205.741 C 290.000 206.030,290.133 206.399,290.295 206.561 C 291.648 207.914,292.162 222.474,291.009 226.800 C 290.863 227.350,290.715 228.250,290.680 228.800 C 290.646 229.350,290.496 229.890,290.348 230.000 C 290.200 230.110,289.982 230.740,289.863 231.400 C 289.550 233.142,289.271 234.346,288.954 235.332 C 288.801 235.809,288.628 236.618,288.570 237.128 C 288.512 237.639,288.170 238.676,287.811 239.433 C 287.452 240.190,287.285 241.015,287.441 241.266 C 287.610 241.539,287.547 241.614,287.286 241.453 C 287.032 241.296,286.850 241.480,286.853 241.891 C 286.857 242.557,286.559 244.079,286.381 244.300 C 286.336 244.355,286.255 244.580,286.200 244.800 C 286.145 245.020,286.055 245.290,286.000 245.400 C 285.840 245.720,285.704 246.351,285.650 247.024 C 285.623 247.367,285.429 247.542,285.221 247.413 C 285.012 247.284,284.912 247.543,284.998 247.989 C 285.084 248.435,284.991 248.800,284.792 248.800 C 284.425 248.800,283.240 252.389,283.110 253.900 C 283.086 254.175,282.906 254.400,282.710 254.400 C 282.513 254.400,282.456 254.568,282.583 254.772 C 282.709 254.977,282.630 255.258,282.407 255.396 C 282.183 255.534,282.000 256.087,282.000 256.624 C 282.000 257.161,281.839 257.600,281.643 257.600 C 281.446 257.600,281.178 257.879,281.047 258.221 C 280.886 258.642,280.968 258.746,281.305 258.544 C 281.688 258.314,281.695 258.377,281.334 258.823 C 280.650 259.670,278.823 264.689,279.098 264.965 C 279.227 265.094,279.104 265.200,278.824 265.200 C 278.540 265.200,278.414 265.460,278.540 265.787 C 278.664 266.110,278.590 266.483,278.376 266.615 C 278.162 266.747,278.091 267.023,278.217 267.228 C 278.344 267.432,278.237 267.600,277.981 267.600 C 277.724 267.600,277.618 267.870,277.745 268.200 C 278.042 268.976,277.046 268.989,276.276 268.219 C 275.957 267.900,275.598 267.735,275.480 267.853 C 275.362 267.972,275.064 267.693,274.818 267.234 C 274.573 266.775,274.129 266.400,273.832 266.400 C 273.535 266.400,272.998 265.951,272.638 265.403 C 272.279 264.854,271.853 264.449,271.692 264.503 C 271.530 264.556,270.796 263.970,270.060 263.200 C 269.324 262.430,268.605 261.794,268.461 261.786 C 267.747 261.747,266.400 260.702,266.400 260.186 C 266.400 259.864,266.258 259.645,266.085 259.700 C 265.912 259.755,265.237 259.301,264.585 258.691 C 263.933 258.081,263.115 257.316,262.766 256.991 C 262.418 256.666,261.923 256.400,261.666 256.400 C 261.410 256.400,261.198 256.175,261.196 255.900 C 261.194 255.625,260.623 254.950,259.926 254.400 C 259.229 253.850,258.421 253.162,258.130 252.871 C 257.838 252.581,257.594 252.491,257.586 252.671 C 257.578 252.852,257.314 252.550,257.000 252.000 C 256.686 251.450,256.422 251.143,256.414 251.318 C 256.406 251.493,255.442 250.683,254.272 249.518 C 253.101 248.353,251.201 246.616,250.048 245.657 C 248.895 244.699,248.039 243.828,248.145 243.721 C 248.252 243.615,247.407 242.602,246.269 241.469 C 245.131 240.336,244.249 239.259,244.310 239.075 C 244.370 238.891,244.243 238.850,244.027 238.983 C 243.812 239.116,243.320 238.725,242.934 238.113 C 242.240 237.012,240.874 235.433,238.658 233.167 C 238.029 232.525,237.657 232.000,237.830 232.000 C 238.003 232.000,237.572 231.489,236.872 230.864 C 236.172 230.240,235.600 229.529,235.600 229.284 C 235.600 229.040,235.285 228.656,234.900 228.432 C 234.515 228.208,234.345 228.019,234.522 228.012 C 234.700 228.005,234.340 227.528,233.722 226.950 C 233.105 226.373,232.877 226.058,233.216 226.250 C 233.554 226.443,233.284 226.090,232.616 225.466 C 231.947 224.843,231.670 224.451,232.000 224.596 C 232.330 224.741,232.251 224.576,231.824 224.230 C 231.120 223.659,231.113 223.600,231.747 223.600 C 232.132 223.600,232.349 223.440,232.228 223.245 C 232.107 223.050,232.277 222.668,232.604 222.396 C 232.932 222.124,233.200 222.034,233.200 222.196 C 233.200 222.357,234.018 221.659,235.019 220.645 C 236.019 219.630,237.039 218.800,237.285 218.800 C 237.532 218.800,237.624 218.691,237.491 218.557 C 237.197 218.263,238.095 217.220,238.455 217.438 C 238.595 217.522,238.955 217.289,239.255 216.919 C 239.724 216.340,239.716 216.296,239.200 216.600 C 238.682 216.905,238.675 216.861,239.149 216.277 C 239.451 215.905,239.864 215.600,240.066 215.600 C 240.269 215.600,241.433 214.610,242.652 213.400 C 243.872 212.190,244.742 211.200,244.586 211.200 C 244.430 211.200,244.524 210.932,244.796 210.604 C 245.068 210.277,245.478 210.125,245.707 210.266 C 245.936 210.408,246.029 210.361,245.913 210.162 C 245.797 209.963,246.067 209.440,246.513 209.000 C 246.958 208.560,247.171 208.470,246.985 208.800 C 246.694 209.316,246.741 209.324,247.319 208.855 C 247.689 208.555,247.893 208.150,247.772 207.955 C 247.651 207.760,247.833 207.600,248.176 207.600 C 248.519 207.600,248.755 207.448,248.700 207.261 C 248.645 207.075,249.230 206.331,250.000 205.607 C 250.770 204.884,251.400 204.170,251.400 204.020 C 251.400 203.870,251.895 203.288,252.500 202.728 C 253.105 202.167,253.600 201.521,253.600 201.293 C 253.600 201.064,254.275 200.307,255.100 199.609 C 255.925 198.911,256.330 198.478,256.000 198.647 C 255.485 198.910,255.477 198.859,255.945 198.281 C 256.245 197.911,256.678 197.725,256.907 197.866 C 257.136 198.008,257.222 197.959,257.097 197.757 C 256.869 197.388,257.878 195.714,258.217 195.900 C 258.318 195.955,258.434 195.865,258.477 195.700 C 258.519 195.535,258.980 194.950,259.503 194.400 C 260.025 193.850,260.731 192.860,261.071 192.200 C 261.411 191.540,262.020 190.640,262.426 190.200 C 264.510 187.936,264.800 187.568,264.800 187.183 C 264.800 186.954,264.983 186.549,265.207 186.283 C 266.737 184.470,267.335 183.676,268.074 182.481 L 268.911 181.126 269.855 182.225 C 270.375 182.830,270.800 183.172,270.800 182.986 M265.717 332.500 C 265.818 332.775,266.103 332.955,266.350 332.900 C 266.598 332.845,266.800 333.010,266.800 333.267 C 266.800 333.523,266.916 333.618,267.057 333.476 C 267.365 333.168,266.463 332.000,265.918 332.000 C 265.706 332.000,265.616 332.225,265.717 332.500 " stroke="none" fill="#145c6c" fill-rule="evenodd"></path><path id="path1" d="M120.887 62.000 C 120.883 62.550,121.024 63.450,121.200 64.000 C 121.631 65.344,121.631 63.892,121.200 62.200 C 120.926 61.122,120.894 61.102,120.887 62.000 M141.600 63.800 C 141.600 64.130,141.915 64.386,142.300 64.368 C 142.722 64.349,142.801 64.256,142.498 64.134 C 142.221 64.023,142.097 63.767,142.221 63.566 C 142.345 63.365,142.257 63.200,142.024 63.200 C 141.791 63.200,141.600 63.470,141.600 63.800 M146.748 64.937 C 146.993 65.232,147.075 65.592,146.930 65.737 C 146.785 65.882,146.995 66.000,147.395 66.000 C 148.099 66.000,148.099 65.972,147.400 65.200 C 146.596 64.312,146.044 64.089,146.748 64.937 M142.306 66.218 C 142.410 66.765,142.628 67.294,142.790 67.394 C 142.952 67.494,142.999 67.129,142.894 66.582 C 142.790 66.035,142.572 65.506,142.410 65.406 C 142.248 65.306,142.201 65.671,142.306 66.218 M121.301 72.600 C 121.305 73.480,121.387 73.793,121.483 73.295 C 121.579 72.798,121.575 72.078,121.475 71.695 C 121.375 71.313,121.296 71.720,121.301 72.600 M150.029 77.313 C 150.375 77.581,150.843 78.135,151.069 78.544 C 151.466 79.261,151.491 79.262,151.762 78.556 C 151.916 78.154,151.914 77.953,151.757 78.110 C 151.600 78.267,151.220 78.036,150.913 77.597 C 150.606 77.159,150.140 76.806,149.877 76.813 C 149.586 76.820,149.645 77.015,150.029 77.313 M130.533 78.571 C 130.785 79.105,131.055 79.478,131.132 79.401 C 131.381 79.153,130.758 77.600,130.411 77.600 C 130.226 77.600,130.281 78.037,130.533 78.571 M121.714 81.000 C 121.717 82.100,121.795 82.503,121.887 81.895 C 121.979 81.286,121.977 80.386,121.882 79.895 C 121.787 79.403,121.711 79.900,121.714 81.000 M153.329 81.481 C 153.816 81.607,153.975 81.891,153.806 82.335 C 153.613 82.842,153.664 82.889,154.021 82.535 C 154.612 81.949,154.170 81.185,153.276 81.246 C 152.696 81.286,152.704 81.320,153.329 81.481 M155.733 88.171 C 155.985 88.705,156.255 89.078,156.332 89.001 C 156.581 88.753,155.958 87.200,155.611 87.200 C 155.426 87.200,155.481 87.637,155.733 88.171 M159.200 88.315 C 159.200 88.484,159.560 88.930,160.000 89.307 C 160.440 89.684,160.800 89.854,160.800 89.685 C 160.800 89.516,160.440 89.070,160.000 88.693 C 159.560 88.316,159.200 88.146,159.200 88.315 M165.606 95.506 C 165.616 95.927,167.979 98.554,168.174 98.360 C 168.263 98.270,167.720 97.526,166.968 96.705 C 166.216 95.883,165.603 95.344,165.606 95.506 M171.470 102.343 C 172.312 103.192,173.078 103.820,173.173 103.737 C 173.409 103.533,170.729 100.800,170.292 100.800 C 170.099 100.800,170.629 101.495,171.470 102.343 M177.200 108.338 C 177.200 108.524,177.560 109.002,178.000 109.400 C 178.440 109.798,178.800 110.006,178.800 109.862 C 178.800 109.718,178.440 109.240,178.000 108.800 C 177.560 108.360,177.200 108.152,177.200 108.338 M185.600 117.068 C 185.600 117.579,187.135 118.998,187.401 118.732 C 187.509 118.625,187.148 118.114,186.598 117.599 C 186.049 117.083,185.600 116.844,185.600 117.068 M228.600 117.600 C 229.040 117.789,229.760 117.938,230.200 117.932 C 230.843 117.923,230.804 117.857,230.000 117.600 C 228.632 117.162,227.581 117.162,228.600 117.600 M195.900 127.133 C 196.725 127.977,197.473 128.609,197.561 128.539 C 197.776 128.369,195.085 125.610,194.700 125.604 C 194.535 125.602,195.075 126.290,195.900 127.133 M174.061 130.175 C 174.318 130.739,174.686 131.200,174.878 131.200 C 175.288 131.200,174.582 129.760,173.995 129.397 C 173.766 129.255,173.794 129.589,174.061 130.175 M162.828 130.276 C 162.918 131.315,163.544 132.196,163.572 131.324 C 163.587 130.842,163.420 130.336,163.200 130.200 C 162.980 130.064,162.813 130.098,162.828 130.276 M200.400 131.320 C 201.170 132.129,201.957 132.793,202.149 132.796 C 202.668 132.802,201.642 131.681,200.236 130.706 C 199.003 129.851,199.004 129.853,200.400 131.320 M164.532 135.367 C 164.679 135.751,164.800 136.231,164.800 136.433 C 164.800 136.635,164.963 136.800,165.163 136.800 C 165.628 136.800,165.237 135.270,164.684 134.928 C 164.420 134.765,164.364 134.928,164.532 135.367 M176.800 135.347 C 176.800 135.780,178.788 139.600,179.013 139.600 C 179.123 139.600,178.739 138.655,178.159 137.500 C 177.043 135.279,176.800 134.894,176.800 135.347 M167.732 144.967 C 167.879 145.351,168.000 145.831,168.000 146.033 C 168.000 146.235,168.163 146.400,168.363 146.400 C 168.828 146.400,168.437 144.870,167.884 144.528 C 167.620 144.365,167.564 144.528,167.732 144.967 M181.793 145.200 C 181.954 145.750,182.356 146.470,182.686 146.800 C 183.150 147.263,183.128 147.080,182.593 146.000 C 181.708 144.216,181.421 143.929,181.793 145.200 M301.276 146.766 C 301.368 147.077,301.884 147.606,302.422 147.941 C 303.180 148.414,303.265 148.421,302.800 147.975 C 302.470 147.659,301.954 147.130,301.654 146.800 C 301.215 146.317,301.141 146.310,301.276 146.766 M222.767 150.145 C 223.300 150.801,224.800 151.793,224.800 151.489 C 224.800 151.413,224.215 150.922,223.500 150.399 C 222.696 149.810,222.416 149.713,222.767 150.145 M170.246 152.000 C 170.377 152.770,170.645 153.571,170.842 153.780 C 171.347 154.316,171.250 153.674,170.573 152.000 L 170.007 150.600 170.246 152.000 M233.400 158.000 C 233.798 158.440,234.304 158.800,234.523 158.800 C 234.743 158.800,234.507 158.440,234.000 158.000 C 233.493 157.560,232.987 157.200,232.877 157.200 C 232.766 157.200,233.002 157.560,233.400 158.000 M189.219 158.600 C 189.209 159.194,189.923 160.210,190.174 159.959 C 190.294 159.840,190.129 159.395,189.809 158.971 C 189.488 158.547,189.222 158.380,189.219 158.600 M312.000 159.200 C 312.235 159.640,312.630 160.000,312.876 160.000 C 313.122 160.000,312.998 159.640,312.600 159.200 C 312.202 158.760,311.808 158.400,311.724 158.400 C 311.640 158.400,311.765 158.760,312.000 159.200 M193.468 165.906 C 193.594 166.405,193.855 166.910,194.048 167.030 C 194.596 167.368,194.462 166.636,193.820 165.776 C 193.260 165.027,193.248 165.032,193.468 165.906 M141.418 168.100 C 141.568 168.595,141.855 169.176,142.056 169.391 C 142.257 169.606,142.219 169.201,141.972 168.491 C 141.465 167.038,140.997 166.708,141.418 168.100 M247.600 167.485 C 247.600 167.834,249.199 168.938,249.400 168.728 C 249.467 168.657,249.089 168.277,248.561 167.881 C 248.032 167.486,247.600 167.308,247.600 167.485 M250.800 169.763 C 250.800 169.843,251.250 170.203,251.800 170.563 C 252.350 170.924,252.800 171.063,252.800 170.873 C 252.800 170.684,252.350 170.323,251.800 170.073 C 251.250 169.822,250.800 169.683,250.800 169.763 M250.629 175.809 C 250.205 176.129,249.938 176.471,250.035 176.569 C 250.132 176.666,250.659 176.402,251.206 175.982 C 251.753 175.561,252.020 175.220,251.800 175.222 C 251.580 175.224,251.053 175.488,250.629 175.809 M201.311 178.497 C 201.580 179.100,201.935 179.595,202.100 179.597 C 202.265 179.599,202.400 179.859,202.400 180.176 C 202.400 180.493,202.563 180.854,202.763 180.977 C 203.421 181.384,202.762 179.764,201.783 178.572 L 200.821 177.400 201.311 178.497 M112.264 180.300 C 111.769 182.125,111.608 183.368,111.939 182.800 C 112.334 182.125,112.868 179.600,112.617 179.600 C 112.527 179.600,112.369 179.915,112.264 180.300 M170.202 182.450 C 170.617 183.821,171.136 184.247,170.903 183.024 C 170.794 182.454,170.527 181.878,170.309 181.744 C 170.063 181.592,170.023 181.858,170.202 182.450 M262.119 190.490 C 261.212 191.662,261.156 192.137,262.023 191.311 C 262.536 190.822,262.856 190.323,262.735 190.201 C 262.613 190.080,262.336 190.210,262.119 190.490 M108.987 196.200 C 108.884 196.530,108.712 197.079,108.605 197.421 C 108.497 197.762,108.566 197.945,108.757 197.827 C 108.948 197.709,109.191 197.159,109.297 196.606 C 109.506 195.513,109.290 195.230,108.987 196.200 M256.629 197.562 L 255.458 199.000 256.809 197.713 C 257.551 197.005,258.078 196.358,257.979 196.275 C 257.881 196.192,257.273 196.771,256.629 197.562 M120.267 197.067 C 120.120 197.213,120.011 197.708,120.025 198.167 C 120.049 198.933,120.082 198.923,120.434 198.042 C 120.826 197.063,120.744 196.589,120.267 197.067 M254.198 200.402 C 253.175 201.532,253.610 201.637,254.686 200.520 C 255.173 200.014,255.426 199.600,255.248 199.600 C 255.070 199.600,254.597 199.961,254.198 200.402 M245.619 209.813 C 244.860 210.576,244.410 211.197,244.619 211.193 C 245.009 211.186,246.419 209.799,246.951 208.900 C 247.422 208.105,247.098 208.327,245.619 209.813 M104.267 215.467 C 104.120 215.613,104.011 216.108,104.025 216.567 C 104.049 217.333,104.082 217.323,104.434 216.442 C 104.826 215.463,104.744 214.989,104.267 215.467 M291.449 221.815 C 291.312 222.173,291.215 222.766,291.234 223.133 C 291.253 223.500,291.427 223.269,291.621 222.620 C 291.998 221.358,291.865 220.733,291.449 221.815 M291.000 225.200 C 290.850 225.673,290.817 226.150,290.927 226.260 C 291.037 226.370,291.250 226.073,291.400 225.600 C 291.550 225.127,291.583 224.650,291.473 224.540 C 291.363 224.430,291.150 224.727,291.000 225.200 M242.719 237.804 C 243.143 238.643,244.800 240.301,244.800 239.887 C 244.800 239.756,244.240 239.053,243.556 238.325 C 242.872 237.596,242.495 237.362,242.719 237.804 M287.904 238.188 C 287.801 238.731,287.848 239.094,288.010 238.994 C 288.440 238.728,288.780 237.200,288.409 237.200 C 288.235 237.200,288.008 237.645,287.904 238.188 M113.456 242.084 C 113.321 242.588,113.228 243.450,113.249 244.000 C 113.272 244.589,113.431 244.271,113.636 243.225 C 114.003 241.352,113.873 240.527,113.456 242.084 M248.638 244.444 C 249.057 244.908,250.120 245.834,251.000 246.501 C 252.223 247.428,252.090 247.229,250.432 245.657 C 248.232 243.570,247.248 242.905,248.638 244.444 M129.571 246.300 C 130.887 248.808,132.796 251.440,132.798 250.749 C 132.799 250.391,132.509 249.857,132.154 249.562 C 131.799 249.268,130.972 248.075,130.316 246.913 C 128.957 244.505,128.379 244.029,129.571 246.300 M202.600 245.627 C 201.940 246.050,201.585 246.397,201.811 246.398 C 202.037 246.399,202.623 246.119,203.114 245.775 C 203.923 245.209,204.028 245.209,204.246 245.775 C 204.378 246.119,204.653 246.400,204.857 246.400 C 205.066 246.400,205.041 246.051,204.800 245.600 C 204.286 244.639,204.140 244.641,202.600 245.627 M285.104 246.988 C 285.001 247.531,285.048 247.894,285.210 247.794 C 285.640 247.528,285.980 246.000,285.609 246.000 C 285.435 246.000,285.208 246.445,285.104 246.988 M198.183 248.428 C 198.037 248.663,197.532 249.012,197.059 249.203 C 196.473 249.439,196.403 249.557,196.838 249.575 C 197.189 249.589,197.802 249.240,198.200 248.800 C 198.598 248.360,198.817 248.000,198.686 248.000 C 198.554 248.000,198.328 248.193,198.183 248.428 M206.009 249.500 C 206.014 249.665,206.385 250.250,206.833 250.800 L 207.648 251.800 207.014 250.500 C 206.411 249.265,205.989 248.845,206.009 249.500 M322.270 255.810 C 322.121 256.245,321.891 256.870,321.758 257.200 C 321.626 257.530,321.819 257.390,322.188 256.890 C 322.558 256.389,322.788 255.764,322.700 255.500 C 322.610 255.231,322.422 255.367,322.270 255.810 M266.400 260.325 C 266.400 260.536,266.850 261.003,267.400 261.363 C 267.950 261.724,268.400 261.834,268.400 261.609 C 268.400 261.384,268.233 261.200,268.029 261.200 C 267.824 261.200,267.374 260.917,267.029 260.571 C 266.683 260.226,266.400 260.115,266.400 260.325 M89.645 262.100 C 89.248 263.289,89.262 263.334,89.805 262.624 C 90.132 262.196,90.400 261.611,90.400 261.324 C 90.400 260.432,90.097 260.743,89.645 262.100 M195.632 262.424 C 195.614 262.766,195.880 263.396,196.222 263.824 C 196.834 264.588,196.838 264.587,196.476 263.800 C 196.274 263.360,196.008 262.730,195.886 262.400 C 195.693 261.882,195.659 261.885,195.632 262.424 M142.846 264.358 C 143.591 265.224,144.353 265.948,144.539 265.966 C 145.009 266.013,142.730 263.326,142.046 263.027 C 141.742 262.893,142.102 263.492,142.846 264.358 M144.800 266.489 C 144.800 266.592,145.267 267.199,145.838 267.838 C 146.531 268.613,146.738 268.723,146.460 268.167 C 146.063 267.373,144.800 266.096,144.800 266.489 M313.519 272.403 C 313.144 273.061,312.964 273.599,313.119 273.597 C 313.273 273.596,313.707 273.056,314.081 272.397 C 314.456 271.739,314.636 271.201,314.481 271.203 C 314.327 271.204,313.893 271.744,313.519 272.403 M85.579 273.055 C 85.358 273.636,85.252 274.185,85.343 274.276 C 85.433 274.367,85.699 273.892,85.933 273.220 C 86.453 271.728,86.139 271.582,85.579 273.055 M309.904 277.644 C 309.301 278.500,308.968 279.200,309.164 279.200 C 309.518 279.200,311.339 276.396,311.116 276.194 C 311.052 276.136,310.507 276.788,309.904 277.644 M83.433 278.257 C 83.052 279.250,83.472 279.386,83.982 278.434 C 84.227 277.975,84.261 277.600,84.057 277.600 C 83.853 277.600,83.572 277.896,83.433 278.257 M159.893 283.600 C 160.270 284.040,160.746 284.400,160.951 284.400 C 161.156 284.400,160.998 284.040,160.600 283.600 C 160.202 283.160,159.726 282.800,159.542 282.800 C 159.358 282.800,159.516 283.160,159.893 283.600 M203.815 283.799 C 204.073 285.038,204.295 285.455,204.543 285.167 C 204.622 285.075,204.434 284.460,204.126 283.800 L 203.566 282.600 203.815 283.799 M305.800 283.357 C 304.173 285.293,303.981 285.660,305.196 284.513 C 305.946 283.805,306.478 283.148,306.379 283.053 C 306.281 282.958,306.020 283.095,305.800 283.357 M162.400 285.902 C 162.400 286.122,162.670 286.526,163.000 286.800 C 163.335 287.078,163.600 287.121,163.600 286.898 C 163.600 286.678,163.330 286.274,163.000 286.000 C 162.665 285.722,162.400 285.679,162.400 285.902 M227.845 288.212 C 228.210 288.769,228.586 289.147,228.682 289.051 C 228.919 288.814,227.884 287.200,227.495 287.200 C 227.322 287.200,227.480 287.656,227.845 288.212 M230.422 291.800 C 230.420 292.020,230.770 292.650,231.200 293.200 C 231.630 293.750,231.986 293.995,231.991 293.744 C 231.996 293.494,231.646 292.864,231.213 292.344 C 230.781 291.825,230.425 291.580,230.422 291.800 M208.228 294.000 C 208.372 294.550,208.650 295.171,208.845 295.380 C 209.416 295.991,209.241 295.114,208.569 294.000 L 207.967 293.000 208.228 294.000 M106.854 294.800 C 106.819 295.350,106.696 296.250,106.583 296.800 L 106.377 297.800 106.807 296.815 C 107.043 296.274,107.165 295.374,107.078 294.815 L 106.920 293.800 106.854 294.800 M295.388 295.500 L 294.685 296.600 295.742 295.630 C 296.886 294.582,296.990 294.400,296.446 294.400 C 296.251 294.400,295.775 294.895,295.388 295.500 M74.633 299.057 C 74.252 300.050,74.672 300.186,75.182 299.234 C 75.427 298.775,75.461 298.400,75.257 298.400 C 75.053 298.400,74.772 298.696,74.633 299.057 M236.800 300.800 C 237.270 301.460,237.837 302.000,238.061 302.000 C 238.285 302.000,237.958 301.460,237.335 300.800 C 236.712 300.140,236.145 299.600,236.074 299.600 C 236.003 299.600,236.330 300.140,236.800 300.800 M180.379 302.978 C 180.907 303.540,181.400 304.000,181.473 304.000 C 181.834 304.000,180.539 302.385,180.018 302.186 C 179.688 302.059,179.851 302.416,180.379 302.978 M284.998 306.402 C 283.975 307.532,284.410 307.637,285.486 306.520 C 285.973 306.014,286.226 305.600,286.048 305.600 C 285.870 305.600,285.397 305.961,284.998 306.402 M185.600 307.089 C 185.600 307.592,186.743 308.590,187.012 308.321 C 187.118 308.215,186.844 307.802,186.402 307.402 C 185.961 307.003,185.600 306.862,185.600 307.089 M188.202 309.602 C 188.602 310.044,189.015 310.318,189.121 310.212 C 189.390 309.943,188.392 308.800,187.889 308.800 C 187.662 308.800,187.803 309.161,188.202 309.602 M190.413 311.070 C 190.427 311.441,192.388 312.956,192.575 312.739 C 192.641 312.663,192.178 312.181,191.547 311.670 C 190.916 311.158,190.406 310.888,190.413 311.070 M218.278 314.195 C 218.644 314.962,219.014 315.519,219.101 315.432 C 219.284 315.249,218.070 312.800,217.796 312.800 C 217.695 312.800,217.912 313.428,218.278 314.195 M274.600 317.663 C 273.781 318.493,273.655 318.752,274.204 318.477 C 275.150 318.003,276.688 316.390,276.162 316.423 C 275.963 316.435,275.260 316.993,274.600 317.663 M253.613 320.230 C 253.599 320.695,255.027 322.098,256.000 322.575 C 256.330 322.737,256.200 322.539,255.712 322.135 C 255.223 321.731,254.554 321.040,254.225 320.600 C 253.895 320.160,253.620 319.994,253.613 320.230 M269.970 323.068 L 269.000 324.136 270.087 323.368 C 270.686 322.946,271.181 322.465,271.187 322.300 C 271.208 321.807,270.989 321.946,269.970 323.068 M257.170 324.132 C 258.189 325.254,258.408 325.393,258.387 324.900 C 258.381 324.735,257.886 324.254,257.287 323.832 L 256.200 323.064 257.170 324.132 M210.344 325.576 C 210.864 326.029,211.479 326.400,211.711 326.400 C 212.203 326.400,212.179 326.380,210.600 325.455 L 209.400 324.753 210.344 325.576 M267.200 333.302 C 267.200 334.091,268.236 334.931,268.887 334.669 C 269.200 334.543,269.119 334.451,268.676 334.432 C 268.278 334.414,268.051 334.240,268.172 334.045 C 268.293 333.850,268.123 333.468,267.796 333.196 C 267.313 332.796,267.200 332.816,267.200 333.302 " stroke="none" fill="#0c5c6c" fill-rule="evenodd"></path><path id="path2" d="" stroke="none" fill="#185c6c" fill-rule="evenodd"></path><path id="path3" d="" stroke="none" fill="#185c6c" fill-rule="evenodd"></path><path id="path4" d="" stroke="none" fill="#185c6c" fill-rule="evenodd"></path></g></svg>